<?xml version="1.0" standalone="no"?><!DOCTYPE svg PUBLIC "-//W3C//DTD SVG 1.1//EN" "http://www.w3.org/Graphics/SVG/1.1/DTD/svg11.dtd"><svg t="1652681704716" class="icon" viewBox="0 0 1036 1024" version="1.1" xmlns="http://www.w3.org/2000/svg" p-id="39573" xmlns:xlink="http://www.w3.org/1999/xlink" width="202.34375" height="200"><defs><style type="text/css"></style></defs><path d="M0 518.303592c2.929316-128.14832 43.420626-266.975666 144.12978-384.482039 33.038239-38.488992 72.26883-69.228273 122.845886-81.872538 57.844728-14.461182 110.349942 3.707995 141.756663 53.988413 16.574739 26.623407 25.955968 58.104287 36.560834 88.064889 13.497103 37.599073 23.100811 76.718424 38.340672 113.538819 7.71263 18.539977 21.914253 36.078795 37.079954 49.909617 26.475087 24.25029 58.215527 20.060255 90.845887 11.717266 35.040556-8.973349 70.859791-18.539977 106.641946-20.097335 71.74971-2.929316 112.500579 38.266512 115.689456 110.201622 2.447277 54.767092-10.753187 106.604867-31.517961 156.588644-55.84241 134.229432-138.641947 247.471611-264.713789 324.227115-81.575898 49.575898-168.676709 72.30591-263.71263 45.052144-120.25029-34.484357-193.928158-117.283893-237.311704-230.711472-26.030127-68.190035-36.634994-139.346466-36.634994-236.125145z m338.169177-284.959444c1.112399-40.787949-24.954809-64.964079-62.183082-57.622248-53.024334 10.456547-100.634994 80.760139-90.697567 133.932793 6.044032 32.29664 30.813441 48.38934 62.479722 40.565469 47.202781-11.717265 89.066049-65.779838 90.438007-116.876014z m340.653534 415.96292a46.720742 46.720742 0 1 0-46.943221 47.202781 47.61066 47.61066 0 0 0 46.980301-47.202781z m-280.139049 196.523755c-0.482039-25.288528-23.249131-47.165701-48.20394-46.238702a47.017381 47.017381 0 1 0 48.20394 46.238702z m122.363847-80.12978a46.498262 46.498262 0 1 0 46.906141 46.609502 46.720742 46.720742 0 0 0-46.943221-46.757822z m-378.957127-271.79606a46.720742 46.720742 0 1 0 47.017382 46.609501 46.943221 46.943221 0 0 0-47.054462-46.757821z m87.174971 233.121668a46.609502 46.609502 0 1 0-47.27694 46.349942 46.943221 46.943221 0 0 0 47.23986-46.498262zM1008.574739 417.779838c17.019699 204.533024 9.900348 405.765933-30.739281 606.220162h-51.911935c-8.417149-51.911935-18.095017-103.82387-25.103129-155.958285-19.207416-143.79606-19.059096-287.92584-4.301275-432.16686 1.446118-14.090382 5.858633-18.910776 20.245655-18.539977 30.220162 1.186559 60.403244 0.444959 91.809965 0.44496zM890.438007 390.044032c3.003476-16.12978 6.192352-30.405562 7.93511-44.866743 0.482039-4.004635-5.228273-8.676709-4.931634-12.829664 0.964079-13.534183 4.227115-26.920046 4.931634-40.41715a155.031286 155.031286 0 0 0-2.855156-29.181923c-4.264195-29.663963-8.750869-59.661645-13.385864-90.994207h149.283894c-4.597914 26.400927-10.271147 51.911935-13.163384 77.867903-2.669757 24.10197-1.965238 48.537659-3.448436 72.750869a136.00927 136.00927 0 0 1-5.228273 22.247972c11.606025 12.384705 3.077636 28.662804 5.228273 45.089224z m42.938586-204.792584l-19.689455 1.557358c3.188876 33.371958 6.414832 64.407879 9.010429 95.555041 1.038239 12.347625 6.896871 13.979143 18.539976 9.677868zM1031.71263 153.103129h-151.32329c-1.112399-30.442642-2.632677-60.403244-3.077637-90.400927-0.22248-15.388181 1.594438-30.813441 2.187718-46.238703 0.482039-12.533024 5.561993-18.317497 22.247972-12.495944v99.337196l7.97219 2.002317c2.632677-5.895713 7.415991-11.754345 7.415991-17.724217 0.815759-28.180765 0.3708-56.39861 0.370799-85.283894h88.17613v66.743917h6.859791V4.041715L1017.807648 0c4.857474 2.929316 13.571263 5.376593 14.016222 8.899189a543.517961 543.517961 0 0 1-0.11124 144.20394z" p-id="39574"></path></svg>