<?xml version="1.0" standalone="no"?><!DOCTYPE svg PUBLIC "-//W3C//DTD SVG 1.1//EN" "http://www.w3.org/Graphics/SVG/1.1/DTD/svg11.dtd"><svg t="1652681666757" class="icon" viewBox="0 0 1087 1024" version="1.1" xmlns="http://www.w3.org/2000/svg" p-id="38959" xmlns:xlink="http://www.w3.org/1999/xlink" width="212.3046875" height="200"><defs><style type="text/css"></style></defs><path d="M830.674536 764.946113l-130.472553 130.476851s-53.998573 39.900402-13.393262 80.514309c40.609609 40.605311 81.219218-12.692652 81.219217-12.692652l130.476851-130.476851" fill="#F0F0FF" p-id="38960"></path><path d="M819.456174 753.723453l-130.476851 130.476851a16.333247 16.333247 0 0 1 1.788061-1.538764c-3.309632 2.441391-32.412898 24.822237-34.80271 56.843996-0.889732 11.897481 1.792359 29.82107 19.612791 47.650098 17.807537 17.807537 35.778406 20.579891 47.727465 19.780422 32.129215-2.157708 54.836726-30.818257 57.316801-34.076311a15.086762 15.086762 0 0 1-1.40122 1.603237l130.481149-130.472552a15.860442 15.860442 0 1 0-22.428127-22.432425l-130.481149 130.472553c-0.50719 0.494296-0.979995 1.031573-1.405519 1.603237-4.379889 5.656461-19.165775 20.691644-34.299818 21.654446-7.921625 0.498594-15.469304-2.957177-23.077158-10.565031-7.59496-7.590661-11.00345-15.069569-10.414594-22.853651 1.126134-15.048078 16.668508-29.730807 22.024094-33.693768 0.627541-0.45991 1.224993-0.984293 1.783762-1.534466l130.476851-130.476851a15.860442 15.860442 0 0 0 0-22.428126 15.847547 15.847547 0 0 0-22.423828-0.012895z" fill="#6E6E96" p-id="38961"></path><path d="M1042.383499 675.715008l-53.78796 53.779363c-13.956329 13.964926-36.801383 13.964926-50.762011 0l-9.838632-9.825737c-13.964926-13.960628-13.964926-36.801383 0-50.770608l53.783662-53.783661c-41.856093-17.833326-92.136704-9.713983-126.277488 24.435396-44.860551 44.860551-44.860551 117.582183 0 162.447032 44.860551 44.856253 117.582183 44.856253 162.447032 0 34.140784-34.140784 42.273021-84.425692 24.435397-126.281785z" fill="#F0F0FF" p-id="38962"></path><path d="M1031.169436 664.496646l-53.783662 53.779364c-3.756647 3.760945-8.781269 5.824092-14.162644 5.824092s-10.414594-2.063147-14.175539-5.824092l-9.838632-9.825738a20.076999 20.076999 0 0 1 0.004298-28.338182l53.78796-53.783662a15.860442 15.860442 0 0 0-4.994535-25.80653c-49.373685-21.044099-105.787859-10.118016-143.715377 27.818098-24.688992 24.680395-38.288569 57.505923-38.288568 92.420386 0 34.92306 13.595279 67.757184 38.288568 92.454773 50.964028 50.959729 133.893938 50.959729 184.879457 0.004298 37.92322-37.936114 48.840706-94.34599 27.805203-143.723974a15.860442 15.860442 0 0 0-25.806529-4.998833z m-24.431099 126.277487c-38.602339 38.598041-101.420865 38.598041-140.014607 0.008597a98.373425 98.373425 0 0 1-28.995811-70.013751 98.343337 98.343337 0 0 1 28.995811-70.000856c28.725023-28.733619 71.449357-36.986207 108.843896-21.056994a15.877635 15.877635 0 0 1-9.36153-11.575114 15.873337 15.873337 0 0 1 4.366995-14.231415l-53.792258 53.78796a51.376657 51.376657 0 0 0-15.121148 36.599367c0 13.85747 5.36848 26.842401 15.121148 36.599367l9.84293 9.834333a51.346569 51.346569 0 0 0 36.599367 15.11685 51.363762 51.363762 0 0 0 36.599367-15.121148l53.779363-53.78796a15.851846 15.851846 0 0 1-25.806529-4.990237c15.929214 37.381644 7.668029 80.110276-21.056994 108.831001z" fill="#6E6E96" p-id="38963"></path><path d="M163.362553 236.5312a3881.252193 3881.252193 0 0 1-99.843417 0.098859 24.998464 24.998464 0 0 0-25.295041 24.714781 25.00706 25.00706 0 0 0 24.719079 25.299339c34.764026 0.404033 70.701467 0.365349 101.197358-0.098859a25.011358 25.011358 0 0 0-0.777979-50.01412z" fill="#9999BD" p-id="38964"></path><path d="M163.130449 221.48742a3828.856857 3828.856857 0 0 1-99.439384 0.098859 39.801543 39.801543 0 0 0-28.458533 11.403185 39.767157 39.767157 0 0 0-12.052217 28.183447 39.818736 39.818736 0 0 0 11.411782 28.46713 39.810139 39.810139 0 0 0 28.183447 12.047918c34.738237 0.404033 70.821817 0.369647 101.597092-0.103157 22.084269-0.348156 39.775754-18.589814 39.436194-40.669784a39.801543 39.801543 0 0 0-12.176865-28.144763 39.78435 39.78435 0 0 0-28.501516-11.282835z m0.468507 30.08756a9.894509 9.894509 0 0 1 7.087769 2.802441c1.912709 1.856832 2.987265 4.341205 3.030247 7.001805a9.980473 9.980473 0 0 1-9.817141 10.122314c-30.508785 0.468506-66.304385 0.502892-100.780429 0.09886a9.898807 9.898807 0 0 1-7.010402-2.991563 9.881614 9.881614 0 0 1-2.841125-7.08777 9.903105 9.903105 0 0 1 2.991563-7.010401 9.894509 9.894509 0 0 1 7.079173-2.836827c34.604992 0.399735 70.211469 0.361051 100.260345-0.098859z" fill="#6E6E96" p-id="38965"></path><path d="M635.995131 285.750149c22.780581 1.156222 47.76615 1.444203 81.042991 0.932714-0.141841 0.008596-0.309472 0.008596-0.451314 0.008597l15.495093 0.017193a25.011358 25.011358 0 1 0 0-50.022717l-15.361848-0.017193h-0.447015c-32.133514 0.489997-56.109 0.227806-77.737657-0.872539a25.002762 25.002762 0 0 0-26.240651 23.713295 24.994165 24.994165 0 0 0 23.700401 26.24065z" fill="#9999BD" p-id="38966"></path><path d="M635.230047 300.776736c23.12014 1.164818 48.428076 1.461396 82.03588 0.949907l-0.915521-30.070367 0.219209 30.078964 15.495093 0.017192c22.10576 0 40.076629-17.970869 40.07663-40.050839 0-10.698277-4.169276-20.760416-11.72985-28.325289a39.810139 39.810139 0 0 0-28.333885-11.734148l-15.344655-0.017193h-0.696312c-31.819743 0.485699-55.498653 0.227806-76.74047-0.855346a39.818736 39.818736 0 0 0-28.888355 10.285647 39.754263 39.754263 0 0 0-13.152562 27.693449 39.758561 39.758561 0 0 0 10.289945 28.884058 39.810139 39.810139 0 0 0 27.684853 13.143965z m1.517273-30.053174a9.958982 9.958982 0 0 1-6.176546-17.351925 9.924596 9.924596 0 0 1 7.186628-2.557443c21.938129 1.11324 46.223088 1.388326 78.734845 0.889732l15.563865 0.021491c2.677793 0 5.187955 1.035872 7.070576 2.922792 1.882622 1.882622 2.92709 4.388485 2.92709 7.053384a9.984772 9.984772 0 0 1-9.971877 9.96328l-15.486496-0.017193-0.017193 30.08756h0.343858c0.447015-0.008596 0.795171-0.025789 0.795171-0.02579l-0.915522-30.070366c-32.924387 0.502892-57.613378 0.223508-80.054399-0.915522z" fill="#6E6E96" p-id="38967"></path><path d="M673.587387 285.324625c9.864421 2.699284 33.401489 10.792837 42.05811 15.804565 34.579202 20.02542 57.92285 45.561162 57.922851 125.959419 0 96.348962-29.180634 115.050529-93.374592 115.050529H139.954432c-64.198256 0-110.051696-15.379041-110.051696-115.050529 0-87.073397 23.347946-105.933999 57.931447-125.959419 8.648024-5.011728 35.266918-13.092387 45.101251-15.783074" fill="#FFE37F" p-id="38968"></path><path d="M95.403353 334.414627c8.450306-4.899974 34.46315-12.791511 44.069678-15.422023l528.32465-0.017193c9.636615 2.634811 32.6493 10.54354 41.095308 15.439216 31.252378 18.099816 53.095946 40.828818 56.203562 106.264962 0.26649-5.656461 0.399735-11.6095 0.399734-17.936483 0-78.571513-22.814967-103.522696-56.603296-123.083908-8.454604-4.895676-31.458693-12.804406-41.099606-15.443515l-528.32465 0.017193c-9.606528 2.630512-35.62367 10.522049-44.069678 15.426322-33.792628 19.561212-56.607594 37.996289-56.607594 123.083908 0 5.501725 0.163332 10.706873 0.442717 15.701407 3.283842-68.930599 25.062937-86.028929 56.169175-104.029886z" fill="#FFFC96" p-id="38969"></path><path d="M675.229309 491.536161H146.535011c-59.324071 0-102.620069-19.25174-107.257851-138.935753a827.330518 827.330518 0 0 0-0.442717 27.005734c0 139.614873 44.873446 161.148969 107.700568 161.148968h528.698596c62.822824 0 91.380216-26.19337 91.380216-161.148968 0-8.360043-0.133245-16.25158-0.378243-23.790663-3.571823 112.854137-32.339828 135.720683-91.006271 135.720682z" fill="#E3747C" opacity=".39" p-id="38970"></path><path d="M132.931136 285.346116c17.029559-80.015715 13.68984-173.390307 83.725082-223.413024 30.010191-20.008227 83.368329-20.008227 125.413544-20.008227H438.457408c7.719608 0.017193 15.301673 0.030088 22.698915 0.068772 35.619372-0.068772 82.306668-0.068772 108.990035 19.939455 70.030944 50.022717 73.357768 146.732729 103.436731 223.391533H132.931136" fill="#AADBF7" p-id="38971"></path><path d="M147.648251 288.475222c3.816822-17.940782 6.649351-36.633753 9.391617-54.716376 9.679598-63.871591 18.821918-124.201446 68.354637-159.584415 25.823722-17.205786 78.330812-17.205786 116.670959-17.205786H438.45311l4.899974 0.008596 17.725871 0.060175c32.670791-0.064473 77.269151-0.150438 100.041135 16.9307 45.741687 32.67509 60.609239 87.498921 76.357928 145.542122 6.455931 23.807856 13.131071 48.428076 22.114356 71.307516l14.00361-20.536909H132.931136v30.08756H695.650165l-8.059168-20.536909c-8.377236-21.349273-14.553782-44.108362-21.078484-68.191304-16.436404-60.587748-33.427279-123.234345-87.627868-161.948438-30.538873-22.909527-80.94843-22.810668-117.75841-22.741897l-17.708678-0.060175-4.925763-0.008597H342.069762c-44.52529 0-99.955171 0-133.760693 22.535582-60.286873 43.050999-70.826115 112.587648-81.017201 179.833343-2.677793 17.644205-5.44155 35.898757-9.073549 52.962702l29.429932 6.26251z" fill="#6E6E96" p-id="38972"></path><path d="M168.284019 405.421268m-58.352673 0a58.352673 58.352673 0 1 0 116.705345 0 58.352673 58.352673 0 1 0-116.705345 0Z" fill="#F0F0FF" p-id="38973"></path><path d="M168.284019 358.733972c25.742056 0 46.687296 20.940941 46.687295 46.687296 0 25.742056-20.940941 46.682998-46.687295 46.682997-25.737758 0-46.682998-20.940941-46.682998-46.682997 0-25.746354 20.940941-46.687296 46.682998-46.687296zM98.253075 405.421268c0 38.615234 31.41571 70.030944 70.026645 70.030944s70.030944-31.41571 70.030944-70.030944c0-38.615234-31.420009-70.026646-70.030944-70.026646-38.615234 0-70.026646 31.411412-70.026645 70.026646zM425.064146 275.361345c0-34.935955 28.415551-63.360102 63.355804-63.360103s63.360102 28.424147 63.360102 63.360103a11.678271 11.678271 0 0 0 23.352244 0c0-47.809132-38.898916-86.70375-86.708048-86.70375-47.81343 0-86.70375 38.894618-86.70375 86.70375 0 6.447334 5.222341 11.669675 11.669675 11.669674a11.669675 11.669675 0 0 0 11.673973-11.669674z" fill="#6E6E96" p-id="38974"></path><path d="M638.4881 405.421268m-58.352672 0a58.352673 58.352673 0 1 0 116.705345 0 58.352673 58.352673 0 1 0-116.705345 0Z" fill="#F0F0FF" p-id="38975"></path><path d="M638.4881 358.733972c25.737758 0 46.674401 20.940941 46.674401 46.687296 0 25.742056-20.936643 46.682998-46.674401 46.682997-25.742056 0-46.687296-20.940941-46.687296-46.682997-0.008596-25.746354 20.94524-46.687296 46.687296-46.687296z m-70.030944 46.687296c0 38.615234 31.420009 70.030944 70.030944 70.030944 38.606637 0 70.022347-31.41571 70.022348-70.030944 0-38.615234-31.41571-70.026646-70.022348-70.026646-38.619532 0-70.030944 31.411412-70.030944 70.026646zM393.631243 448.768845h26.193369V375.40248H393.631243v73.366365z m-63.609399 0h26.189071V375.40248h-26.189071v73.366365z m127.210201-73.362067v73.362067h26.197668V375.406778h-26.197668z" fill="#6E6E96" p-id="38976"></path><path d="M134.598847 290.349247l0.004298-0.025789h-0.004298v0.025789z m528.122633-37.29138v-19.801913h-5.613479c-17.278856-62.861508-31.90141-128.168705-85.302529-166.319731-26.683367-20.008227-73.370663-20.008227-108.990035-19.939455-7.414434-0.038684-14.987903-0.04728-22.703213-0.07307H343.733174c-42.040917 0-95.399055 0-125.42214 20.008227-53.792258 38.43041-64.292816 102.439544-73.989608 166.319731h-2.424197v15.899126c-2.162006 13.917645-4.435766 27.736432-7.294084 41.168378h540.651953c-4.71515-12.009234-8.772673-24.512765-12.533618-37.261293zM184.187443 233.255954c7.938817-51.909637 17.442188-103.363662 61.159412-134.594548 25.08013-16.720087 69.669893-16.720087 104.803566-16.720087h80.544397c6.455931 0.012895 12.791511 0.021491 18.972355 0.060175 29.769491-0.060175 68.780161-0.060175 91.079341 16.659912 43.386261 30.994485 56.139088 83.441399 70.073926 134.594548H184.187443z" fill="#6E6E96" opacity=".15" p-id="38977"></path><path d="M269.167606 156.128644c-25.797933 23.803558-49.042722 46.640015-44.190029 17.519557 0 0 10.001964-70.030944 70.026646-70.030944 30.90852 0 1.551658 27.255031-25.836617 52.511387z" fill="#FFFFFF" opacity=".46" p-id="38978"></path><path d="M669.61583 299.835425c10.083631 2.759459 31.789656 10.427488 38.481988 14.304486 27.585994 15.980792 50.418153 35.507618 50.418153 112.9444 0 90.133732-25.088726 100.00675-78.330812 100.006749H139.954432c-63.011946 0-95.007916-15.469304-95.007916-100.006749 0-83.746573 22.251899-96.632645 50.418153-112.940102 5.935846-3.438578 28.187745-10.6424 41.533727-14.282995l-7.938818-29.0216c-0.356752 0.090263-36.079282 9.96328-48.677373 17.274558C41.980742 310.288703 14.863254 333.241213 14.863254 427.088609c0 114.328428 60.119242 130.094309 125.095476 130.094309H680.193756c80.045803 0 108.418372-34.050521 108.418371-130.094309 0-84.176395-25.03285-115.583509-65.427547-138.978736-11.050731-6.400054-37.12375-14.962114-45.621337-17.29175l-7.947413 29.017302z" fill="#6E6E96" p-id="38979"></path><path d="M132.660348 560.062727c-18.344815 0-33.354209 15.000798-33.354209 33.345613v38.834442c0 18.349113 15.009394 33.354209 33.354209 33.354209h33.345612c18.349113 0 33.349911-15.009394 33.349911-33.354209v-38.834442c0-18.344815-15.000798-33.345612-33.349911-33.345613h-33.345612z" fill="#9999BD" p-id="38980"></path><path d="M132.660348 545.018947c-26.683367 0-48.397989 21.710323-48.397989 48.389393v38.834442c0 26.687665 21.710323 48.397989 48.397989 48.397989h33.345612c26.683367 0 48.39369-21.710323 48.393691-48.397989v-38.834442c0-26.679069-21.710323-48.389392-48.393691-48.389393h-33.345612z m33.341314 30.08756c10.100824 0 18.306131 8.209606 18.306131 18.301833v38.834442c0 10.100824-8.213904 18.310429-18.306131 18.310429h-33.345612a18.327622 18.327622 0 0 1-18.310429-18.310429v-38.834442a18.327622 18.327622 0 0 1 18.310429-18.301833h33.345612z" fill="#6E6E96" p-id="38981"></path><path d="M640.173003 560.062727c-18.349113 0-33.354209 15.000798-33.354208 33.345613v38.834442c0 18.349113 15.005096 33.354209 33.354208 33.354209h33.354209c18.336218 0 33.345612-15.009394 33.345613-33.354209v-38.834442c0-18.344815-15.000798-33.345612-33.345613-33.345613h-33.354209z" fill="#9999BD" p-id="38982"></path><path d="M640.173003 545.018947c-26.687665 0-48.397989 21.710323-48.397988 48.389393v38.834442c0 26.687665 21.710323 48.397989 48.397988 48.397989h33.354209c26.679069 0 48.389392-21.710323 48.389392-48.397989v-38.834442c0-26.679069-21.710323-48.389392-48.389392-48.389393h-33.354209z m33.354209 30.08756a18.323324 18.323324 0 0 1 18.301833 18.301833v38.834442c0 10.100824-8.209606 18.310429-18.301833 18.310429h-33.354209a18.323324 18.323324 0 0 1-18.310429-18.310429v-38.834442a18.319026 18.319026 0 0 1 18.310429-18.301833h33.354209z" fill="#6E6E96" p-id="38983"></path><path d="M770.220032 566.037257c0 12.838791-10.509155 23.347946-23.347946 23.347946H51.166044c-12.834493 0-23.343648-10.500558-23.343648-23.347946v-22.230408c0-12.834493 10.500558-23.352244 23.343648-23.352245h695.706042c12.830195 0 23.347946 10.509155 23.347946 23.352245v22.230408z" fill="#E4E4F7" p-id="38984"></path><path d="M755.176252 566.037257c0 4.500239-3.803927 8.304166-8.304166 8.304166H51.166044c-4.495941 0-8.299868-3.803927-8.299868-8.304166v-22.230408c0-4.500239 3.799629-8.308465 8.299868-8.308465h695.706042c4.500239 0 8.304166 3.808225 8.304166 8.308465v22.230408z m30.08756-22.22611c0-21.168747-17.227277-38.391726-38.391726-38.391726H51.166044c-21.164449 0-38.387428 17.222979-38.387428 38.391726v22.230408c0 21.173045 17.21868 38.391726 38.387428 38.391726h695.706042c21.164449 0 38.391726-17.21868 38.391726-38.391726v-22.230408z" fill="#6E6E96" p-id="38985"></path><path d="M736.530562 561.395176H61.288359c-10.986257 0-20.193051-7.925923-22.22611-18.349113-0.26649 1.392624-0.429822 2.836827-0.429823 4.319714v21.581377c0 12.451951 10.195384 22.651634 22.655933 22.651634h675.250799c12.451951 0 22.651634-10.195384 22.651634-22.651634v-21.581377c0-1.482887-0.150438-2.92709-0.429822-4.319714-2.041656 10.427488-11.248449 18.349113-22.230408 18.349113z" fill="#6E6E96" opacity=".15" p-id="38986"></path></svg>