<?xml version="1.0" standalone="no"?><!DOCTYPE svg PUBLIC "-//W3C//DTD SVG 1.1//EN" "http://www.w3.org/Graphics/SVG/1.1/DTD/svg11.dtd"><svg t="1652681445870" class="icon" viewBox="0 0 1024 1024" version="1.1" xmlns="http://www.w3.org/2000/svg" p-id="31638" xmlns:xlink="http://www.w3.org/1999/xlink" width="200" height="200"><defs><style type="text/css"></style></defs><path d="M512 512m-496 0a496 496 0 1 0 992 0 496 496 0 1 0-992 0Z" fill="#FD8A58" p-id="31639"></path><path d="M512 32c264.746667 0 480 215.253333 480 480S776.746667 992 512 992 32 776.746667 32 512 247.253333 32 512 32M512 0C229.333333 0 0 229.333333 0 512s229.333333 512 512 512 512-229.333333 512-512S794.666667 0 512 0z" fill="#FFFFFF" p-id="31640"></path><path d="M524.373333 271.573333l-0.853333 220.373334-154.24-105.386667V217.6h-31.786667v171.52l-176.213333 115.626667-1.28 259.413333L353.28 896l194.346667-127.573333 0.853333-220.373334 154.24 105.386667v170.24h31.786667v-172.8l176.213333-115.626667 1.066667-259.2-193.28-131.84-194.133334 127.36z m-8.533333 475.52l-162.346667 106.453334-161.706666-110.293334 0.853333-216.96 162.346667-106.453333 161.706666 110.293333-0.853333 216.96z m363.306667-233.386666l-162.346667 106.453333-161.706667-110.293333 0.853334-216.96 162.346666-106.453334 161.706667 110.293334-0.853333 216.96z" fill="#FFFFFF" p-id="31641"></path><path d="M464.426667 566.613333h31.786666v146.773334h-31.786666v-146.773334zM229.546667 539.733333l106.666666-70.186666 15.786667 32-106.666667 70.186666-15.786666-32zM229.76 719.786667l16.213333-31.573334 105.813334 72.106667-16.213334 31.573333-105.813333-72.106666zM706.56 260.906667l16.213333-31.573334 105.813334 72.106667-16.213334 31.573333-105.813333-72.106666z" fill="#FFFFFF" p-id="31642"></path></svg>