<?xml version="1.0" standalone="no"?><!DOCTYPE svg PUBLIC "-//W3C//DTD SVG 1.1//EN" "http://www.w3.org/Graphics/SVG/1.1/DTD/svg11.dtd"><svg t="1652699086569" class="icon" viewBox="0 0 1024 1024" version="1.1" xmlns="http://www.w3.org/2000/svg" p-id="46465" xmlns:xlink="http://www.w3.org/1999/xlink" width="200" height="200"><defs><style type="text/css"></style></defs><path d="M358.985143 548.668952c6.070857-23.600762 18.505143-45.275429 36.327619-64.414476a218.112 218.112 0 0 1-72.045714-76.995047H380.342857c7.509333 24.380952 17.212952 45.909333 27.745524 64.560761 7.338667-6.680381 15.311238-12.751238 23.771429-18.017523 3.974095-2.706286 7.94819-5.241905 11.946666-7.484953a290.620952 290.620952 0 0 1-17.700571-38.887619h64.390095v22.942476c3.82781-0.633905 7.509333-1.121524 11.337143-1.121523a118.979048 118.979048 0 0 1 13.06819-0.633905c6.534095 0 12.726857 0.487619 18.968381 1.267809v-22.332952h64.536381a246.588952 246.588952 0 0 1-16.896 37.61981 132.33981 132.33981 0 0 1 34.937905 26.477714c10.50819-18.651429 20.23619-40.155429 27.574857-64.414476h56.905143a217.478095 217.478095 0 0 1-69.36381 75.093333c5.753905 4.144762 11.166476 9.240381 16.286477 15.62819 10.337524 13.06819 17.042286 29.500952 20.382476 48.932572A289.645714 289.645714 0 0 0 802.133333 302.689524C802.133333 142.799238 672.231619 12.726857 512.170667 12.726857 352.280381 12.726857 222.208 142.628571 222.208 302.689524c-0.170667 103.619048 54.662095 194.80381 136.777143 245.979428zM719.067429 241.322667c5.729524 19.285333 8.752762 40.009143 8.752761 61.19619s-3.193905 41.935238-8.752761 61.220572h-65.048381a369.42019 369.42019 0 0 0 0-122.416762h65.048381z m-17.993143-43.52h-57.07581a323.85219 323.85219 0 0 0-46.543238-93.720381 218.940952 218.940952 0 0 1 103.619048 93.720381zM533.699048 96.109714a283.233524 283.233524 0 0 1 64.414476 102.009905H533.699048V96.109714z m0 145.212953h76.190476c3.510857 18.651429 5.90019 39.058286 5.90019 61.19619 0 22.162286-2.072381 42.398476-5.729524 61.220572H533.699048V241.322667z m-43.373715 122.758095h-76.190476c-3.535238-18.651429-5.90019-39.058286-5.90019-61.220572s2.072381-42.398476 5.729523-61.220571h76.361143v122.441143z m0-166.278095h-64.560762a277.430857 277.430857 0 0 1 64.560762-102.180572v102.180572z m-63.926857-93.549715A325.436952 325.436952 0 0 0 379.855238 197.973333h-56.905143a217.502476 217.502476 0 0 1 103.448381-93.720381z m-130.535619 198.290286c0-21.211429 3.193905-41.910857 8.752762-61.19619h65.048381a369.371429 369.371429 0 0 0 0 122.416762h-65.048381a221.135238 221.135238 0 0 1-8.752762-61.220572z m677.302857 563.980191c-48.298667-18.529524-77.165714-37.13219-77.165714-37.132191l-37.278476 117.76-5.095619 15.945143-16.603429-47.323429c38.253714-53.369905-2.852571-55.954286-10.044952-55.954285H826.343619c-7.192381 0-48.298667 2.56-10.044952 55.954285l-16.579048 47.323429-5.12-15.945143-37.107809-117.76s-16.262095 10.532571-44.812191 23.722667a105.423238 105.423238 0 0 0-26.282667-13.994667c-57.392762-21.845333-91.843048-44.324571-91.843047-44.324571l-44.300191 140.141714-6.046476 18.944-20.260571-56.417524c45.592381-63.439238-3.34019-66.608762-11.946667-66.608762h-0.658286c-8.43581 0-57.514667 3.193905-11.946666 66.608762l-19.772953 56.100572-6.046476-18.944-44.30019-140.092953s-34.450286 22.430476-91.843048 44.27581a94.768762 94.768762 0 0 0-26.282667 14.043428c-28.550095-13.092571-44.81219-23.771429-44.81219-23.771428l-37.132191 117.808762-5.095619 15.896381-16.579047-47.323429c38.253714-53.369905-2.876952-55.954286-10.044953-55.954286H196.85181c-7.168 0-48.274286 2.56-10.020572 55.954286l-16.603428 47.323429-5.09562-15.896381-37.13219-117.833143s-28.988952 18.944-77.141333 37.13219C-2.389333 885.467429 0.950857 929.28 0 1011.248762h1024c-0.950857-81.627429 2.413714-125.293714-50.834286-144.725333z" fill="#040000" p-id="46466"></path><path d="M800.353524 561.103238a91.745524 91.745524 0 0 0-22.137905 11.337143 133.046857 133.046857 0 0 0-22.649905 18.627048c-10.678857 10.99581-20.406857 25.185524-24.380952 42.910476-3.510857 13.190095-2.706286 27.087238 0.170667 41.910857 0.78019 4.486095 1.901714 8.630857 3.510857 13.092571-8.143238-0.804571-17.700571 3.949714-8.630857 35.669334 6.558476 23.28381 12.604952 29.817905 17.212952 30.134857 4.144762 27.721143 25.673143 62.805333 60.562286 75.093333a67.096381 67.096381 0 0 0 44.641523 0c34.425905-12.434286 56.58819-47.518476 60.732953-75.093333 4.608-0.487619 10.678857-6.997333 17.212952-30.134857 9.069714-31.719619-0.633905-36.668952-8.630857-35.669334a114.102857 114.102857 0 0 0 3.535238-13.092571c13.702095-82.432-26.940952-85.089524-26.940952-85.089524s-6.680381-12.751238-24.380953-22.674286c-11.800381-6.997333-28.379429-12.434286-50.224761-10.532571a51.395048 51.395048 0 0 0-19.602286 3.510857zM114.297905 754.761143c4.144762 27.721143 25.673143 62.805333 60.562285 75.093333a67.096381 67.096381 0 0 0 44.641524 0c34.425905-12.434286 56.58819-47.518476 60.732953-75.093333 4.608-0.487619 10.678857-6.997333 17.212952-30.134857 9.069714-31.719619-0.633905-36.668952-8.630857-35.669334 1.462857-4.486095 2.706286-8.801524 3.535238-13.092571 13.702095-82.432-26.940952-85.089524-26.940952-85.089524s-6.680381-12.751238-24.380953-22.674286c-11.800381-6.997333-28.379429-12.434286-50.224762-10.532571a78.019048 78.019048 0 0 0-19.919238 3.85219 83.894857 83.894857 0 0 0-21.845333 11.288381 135.68 135.68 0 0 0-22.649905 18.67581c-10.678857 10.99581-20.406857 25.185524-24.380952 42.861714-3.510857 13.238857-2.706286 27.087238 0.170666 41.959619 0.78019 4.437333 1.901714 8.630857 3.510858 13.04381-7.972571-0.804571-17.700571 3.998476-8.630858 35.718095 6.558476 22.79619 12.604952 29.330286 17.237334 29.793524z m278.332952-84.943238c7.801905 27.721143 15.140571 35.376762 20.553143 36.010666 5.12 33.01181 30.45181 74.947048 72.045714 89.429334 17.066667 6.046476 36.035048 6.046476 52.931048-0.146286 40.984381-14.677333 67.291429-56.56381 72.387048-89.429333 5.412571-0.487619 12.726857-8.143238 20.577523-36.059429 10.678857-37.766095-0.633905-43.471238-10.386285-42.374095 1.926095-5.241905 3.193905-10.532571 4.144762-15.628191 16.432762-98.03581-32.01219-101.376-32.012191-101.376s-7.972571-15.286857-29.013333-27.087238c-14.019048-8.46019-33.792-14.994286-59.782096-12.604952-8.43581 0.487619-16.408381 2.072381-23.747047 4.632381-9.411048 3.169524-18.334476 7.972571-26.136381 13.385143a134.802286 134.802286 0 0 0-26.940952 22.308571c-12.726857 13.06819-24.210286 29.793524-28.988953 51.175619-4.144762 15.750095-3.193905 32.182857 0.170667 49.90781 0.78019 5.241905 2.389333 10.337524 4.144762 15.62819-9.337905-1.170286-20.821333 4.266667-9.947429 42.22781z" fill="#040000" p-id="46467"></path></svg>