<?xml version="1.0" standalone="no"?><!DOCTYPE svg PUBLIC "-//W3C//DTD SVG 1.1//EN" "http://www.w3.org/Graphics/SVG/1.1/DTD/svg11.dtd"><svg t="1652700176607" class="icon" viewBox="0 0 1024 1024" version="1.1" xmlns="http://www.w3.org/2000/svg" p-id="56048" xmlns:xlink="http://www.w3.org/1999/xlink" width="200" height="200"><defs><style type="text/css"></style></defs><path d="M457.088 605.44V117.12c0-31.744 25.984-57.6 57.6-57.6 31.744 0 57.6 25.984 57.6 57.6V605.44c0 31.744-25.984 57.6-57.6 57.6-31.744 0.128-57.6-25.856-57.6-57.6z" fill="#36A99E" p-id="56049"></path><path d="M270.464 303.616h488.448c31.744 0 57.6 25.984 57.6 57.6 0 31.744-25.984 57.6-57.6 57.6H270.464c-31.744 0-57.6-25.984-57.6-57.6s25.984-57.6 57.6-57.6z" fill="#36A99E" p-id="56050"></path><path d="M514.688 776.832c-247.808 0-454.528-182.656-493.44-419.84-4.352 26.368-7.168 53.248-7.168 80.768 0 275.2 225.28 500.48 500.608 500.48s500.608-225.28 500.608-500.608c0-27.52-2.816-54.4-7.168-80.768-38.912 237.312-245.632 419.968-493.44 419.968z" fill="#36A99E" p-id="56051"></path></svg>