<?xml version="1.0" standalone="no"?><!DOCTYPE svg PUBLIC "-//W3C//DTD SVG 1.1//EN" "http://www.w3.org/Graphics/SVG/1.1/DTD/svg11.dtd"><svg t="1652681908989" class="icon" viewBox="0 0 1024 1024" version="1.1" xmlns="http://www.w3.org/2000/svg" p-id="43817" xmlns:xlink="http://www.w3.org/1999/xlink" width="200" height="200"><defs><style type="text/css"></style></defs><path d="M181.26256 372.803445c1.284411-1.766066 393.511528-303.121079 393.511527-303.121079l401.378547 292.845788zM434.291596 987.715379h-22.958853a11.399151 11.399151 0 0 1-11.399151-11.39915V459.982866a11.399151 11.399151 0 0 1 11.399151-11.399151h22.958853a11.399151 11.399151 0 0 1 11.39915 11.399151v516.333363a11.399151 11.399151 0 0 1-11.39915 11.39915m-243.877606 0h-22.798301a11.399151 11.399151 0 0 1-11.559702-11.39915V459.982866a11.399151 11.399151 0 0 1 11.559702-11.399151h22.798301a11.399151 11.399151 0 0 1 11.399151 11.399151v516.333363a11.399151 11.399151 0 0 1-11.399151 11.39915" fill="#066bbd" p-id="43818"></path><path d="M89.748251 363.812566h845.945426L513.925099 46.241859a2.24772 2.24772 0 0 0-1.123859 0h-1.284412z m850.92252 0z m0 45.596603H85.734465a43.509435 43.509435 0 0 1-41.422266-29.702013 44.312192 44.312192 0 0 1 15.091834-50.092043L484.223087 9.315033A48.165426 48.165426 0 0 1 512.961791 0.00305a46.881014 46.881014 0 0 1 28.578152 9.311983L965.877344 329.615113a44.15164 44.15164 0 0 1 16.055141 50.092043 43.509435 43.509435 0 0 1-41.422266 29.702013z" fill="#d81e06" p-id="43819"></path><path d="M497.869958 1024H24.724926a22.156096 22.156096 0 1 1 0-44.312192h473.145032a22.156096 22.156096 0 0 1 0 44.312192z m523.558176-256.88227a256.88227 256.88227 0 1 1-256.88227-256.88227 256.88227 256.88227 0 0 1 256.88227 256.88227zM676.88479 669.181364l61.651744 104.679525h-39.335097a11.238599 11.238599 0 0 0-11.2386 11.078048 11.238599 11.238599 0 0 0 11.2386 11.2386h52.500314v31.307526h-52.500314a11.238599 11.238599 0 0 0-11.2386 11.078048 11.238599 11.238599 0 0 0 11.2386 11.2386h52.821417v33.555246A21.032236 21.032236 0 0 0 773.215641 904.389193h2.087168a20.871684 20.871684 0 0 0 21.032236-21.032236v-33.555246h53.303071a11.078048 11.078048 0 0 0 11.078048-11.2386 11.078048 11.078048 0 0 0-11.078048-11.078048h-53.463622v-30.986424h53.303071a11.078048 11.078048 0 0 0 11.078048-11.238599 11.078048 11.078048 0 0 0-11.078048-11.078048h-39.495649l61.491193-104.679525a14.289076 14.289076 0 0 0-5.137645-19.587273 14.449628 14.449628 0 0 0-7.224814-2.087168h-8.509225a27.935947 27.935947 0 0 0-24.564367 14.77073l-51.858109 96.330851-51.858108-96.330851a28.417601 28.417601 0 0 0-24.724918-14.77073h-8.348674a14.449628 14.449628 0 0 0-14.449628 14.449627 13.967973 13.967973 0 0 0 2.087169 6.903711z m-60.206782-477.319368l-51.215903 52.01866 12.041356 73.371998-63.257259-34.679106-63.738913 34.839658 12.041356-73.371999-51.215902-52.01866 70.963727-10.756945 32.110284-66.78939 32.110283 66.78939z" fill="#d81e06" p-id="43820"></path><path d="M885.601634 490.166532h-22.316647a11.399151 11.399151 0 0 1-11.399151-11.39915v-18.784516a11.399151 11.399151 0 0 1 11.399151-11.399151H885.601634a11.399151 11.399151 0 0 1 11.399151 11.399151v18.784516a11.399151 11.399151 0 0 1-11.399151 11.39915m-240.827128 3.532131h-21.995545a11.399151 11.399151 0 0 1-11.39915-11.559702v-22.156095a11.399151 11.399151 0 0 1 11.39915-11.399151h22.798302a11.399151 11.399151 0 0 1 11.399151 11.399151v22.156095a11.399151 11.399151 0 0 1-11.399151 11.559702M402.02076 987.715379h-22.798301a11.399151 11.399151 0 0 1-11.399151-11.39915V459.982866a11.399151 11.399151 0 0 1 11.399151-11.399151h22.798301a11.399151 11.399151 0 0 1 11.399151 11.399151v516.333363a11.399151 11.399151 0 0 1-11.399151 11.39915m-245.964773 0H133.257685a11.399151 11.399151 0 0 1-11.39915-11.39915V459.982866a11.399151 11.399151 0 0 1 11.39915-11.399151h22.798302a11.399151 11.399151 0 0 1 11.559702 11.399151v516.333363a11.399151 11.399151 0 0 1-11.559702 11.39915" fill="#d81e06" p-id="43821"></path></svg>