<?xml version="1.0" standalone="no"?><!DOCTYPE svg PUBLIC "-//W3C//DTD SVG 1.1//EN" "http://www.w3.org/Graphics/SVG/1.1/DTD/svg11.dtd"><svg t="1652680800627" class="icon" viewBox="0 0 1024 1024" version="1.1" xmlns="http://www.w3.org/2000/svg" p-id="10613" xmlns:xlink="http://www.w3.org/1999/xlink" width="200" height="200"><defs><style type="text/css"></style></defs><path d="M281.6 358.4A153.642667 153.642667 0 0 0 128 512c0 84.778667 68.821333 153.6 153.6 153.6s153.6-68.821333 153.6-153.6-68.821333-153.6-153.6-153.6z m-24.32 45.781333a110.805333 110.805333 0 0 1 48.64 0 5.333333 5.333333 0 0 1 4.181333 5.205334v21.888c9.898667 3.541333 19.072 8.832 27.093334 15.658666l18.944-10.922666a5.376 5.376 0 0 1 6.613333 1.024c11.008 11.861333 19.456 26.282667 24.362667 42.154666a5.333333 5.333333 0 0 1-2.389334 6.229334l-18.944 10.922666c1.877333 10.368 1.877333 20.906667 0 31.317334l18.944 10.922666c2.133333 1.28 3.157333 3.84 2.389334 6.229334-4.906667 15.872-13.354667 30.293333-24.362667 42.154666a5.376 5.376 0 0 1-6.613333 1.024l-18.944-10.922666a86.186667 86.186667 0 0 1-27.093334 15.658666v21.888c0 2.474667-1.749333 4.693333-4.181333 5.205334a110.805333 110.805333 0 0 1-48.64 0 5.333333 5.333333 0 0 1-4.181333-5.205334v-21.888a86.186667 86.186667 0 0 1-27.093334-15.658666l-18.944 10.922666a5.376 5.376 0 0 1-6.613333-1.024 110.762667 110.762667 0 0 1-24.362667-42.154666 5.333333 5.333333 0 0 1 2.389334-6.229334l18.944-10.922666a86.186667 86.186667 0 0 1 0-31.317334l-18.944-10.922666a5.418667 5.418667 0 0 1-2.389334-6.229334c4.906667-15.872 13.354667-30.293333 24.362667-42.154666a5.376 5.376 0 0 1 6.613333-1.024l18.944 10.922666a86.186667 86.186667 0 0 1 27.093334-15.658666v-21.888c0-2.474667 1.749333-4.693333 4.181333-5.205334z m24.405333 72.192a35.669333 35.669333 0 1 0 35.626667 35.626667 35.712 35.712 0 0 0-35.626667-35.626667zM204.8 780.8a38.4 38.4 0 0 0 38.4 38.4h76.8a38.4 38.4 0 0 0 38.4-38.4v-76.8H204.8v76.8zM358.4 243.2a38.4 38.4 0 0 0-38.4-38.4H243.2a38.4 38.4 0 0 0-38.4 38.4v76.8h153.6V243.2z m536.533333 493.482667L758.613333 227.669333a30.250667 30.250667 0 0 0-37.632-21.674666l-18.56 4.906666c-7.381333 2.005333-13.824 7.68-19.242666 17.066667-16.810667 8.362667-62.762667 20.693333-81.621334 21.888-9.386667-5.418667-17.792-7.125333-25.173333-5.12l-18.602667 4.949333c-2.901333 0.768-5.034667 2.389333-7.381333 3.712V243.2a38.4 38.4 0 0 0-38.4-38.4h-76.8a38.4 38.4 0 0 0-38.4 38.4v76.8h153.6l122.026667 476.330667a30.250667 30.250667 0 0 0 37.546666 21.674666l18.56-4.992c7.424-1.962667 13.866667-7.68 19.285334-17.066666 16.682667-8.277333 62.592-20.650667 81.578666-21.845334 9.386667 5.418667 17.834667 7.125333 25.216 5.12l18.602667-4.906666a30.293333 30.293333 0 0 0 21.717333-37.632z m-161.28-8.448l-110.506666-412.586667 74.24-19.882667 110.464 412.586667-74.197334 19.882667zM396.8 359.381333c46.336 35.072 76.8 90.154667 76.8 152.618667a191.146667 191.146667 0 0 1-76.8 152.618667v0.981333h153.6V358.4H396.8v0.981333z m0 421.418667v-76.8h153.6v76.8a38.4 38.4 0 0 1-38.4 38.4h-76.8a38.4 38.4 0 0 1-38.4-38.4z" fill="#4884FF" p-id="10614"></path></svg>