<?xml version="1.0" standalone="no"?><!DOCTYPE svg PUBLIC "-//W3C//DTD SVG 1.1//EN" "http://www.w3.org/Graphics/SVG/1.1/DTD/svg11.dtd"><svg t="1652681314688" class="icon" viewBox="0 0 1024 1024" version="1.1" xmlns="http://www.w3.org/2000/svg" p-id="27158" xmlns:xlink="http://www.w3.org/1999/xlink" width="200" height="200"><defs><style type="text/css"></style></defs><path d="M220.728889 284.444444c0 20.48 11.377778 36.408889 27.306667 36.408889 11.377778 68.266667 56.888889 118.328889 113.777777 118.328889s102.4-50.062222 113.777778-118.328889h2.275556c15.928889 0 29.582222-15.928889 29.582222-36.408889 0-18.204444-11.377778-34.133333-22.755556-36.408888 0 0 31.857778-104.675556-34.133333-136.533334-9.102222-91.022222-168.391111-20.48-168.391111-20.48-81.92 43.235556-43.235556 159.288889-43.235556 159.288889-11.377778 6.826667-18.204444 18.204444-18.204444 34.133333z m29.582222-29.582222h2.275556v-9.102222l9.102222-50.062222c4.551111-9.102222 11.377778-13.653333 11.377778-13.653334 72.817778 2.275556 129.706667-34.133333 129.706666-34.133333 50.062222-38.684444 63.715556 104.675556 63.715556 104.675556h2.275555l6.826667-2.275556h2.275556c4.551111 0 11.377778 2.275556 13.653333 6.826667 4.551111 4.551111 6.826667 13.653333 6.826667 20.48 0 9.102222-2.275556 15.928889-6.826667 20.48-4.551111 4.551111-9.102222 6.826667-13.653333 6.826666h-9.102223l-2.275555 6.826667c-4.551111 31.857778-18.204444 59.164444-38.684445 81.92-9.102222 9.102222-20.48 18.204444-31.857777 22.755556-11.377778 4.551111-25.031111 9.102222-36.408889 9.102222s-25.031111-2.275556-36.408889-9.102222c-11.377778-4.551111-22.755556-13.653333-31.857778-22.755556-18.204444-20.48-31.857778-50.062222-38.684444-79.644444v-6.826667h-6.826667c-11.377778 0-20.48-13.653333-20.48-29.582222 0-9.102222 2.275556-15.928889 6.826667-20.48 6.826667 0 13.653333-2.275556 18.204444-2.275556z" fill="#4D95F4" p-id="27159"></path><path d="M284.444444 293.546667h50.062223c9.102222 0 18.204444-6.826667 18.204444-15.928889v-15.928889h18.204445v15.928889c0 9.102222 6.826667 15.928889 18.204444 15.928889h50.062222c9.102222 0 18.204444-6.826667 18.204445-15.928889v-31.857778c0-9.102222-6.826667-18.204444-18.204445-18.204444H386.844444c-9.102222 0-18.204444 6.826667-18.204444 18.204444v11.377778h-18.204444v-11.377778c0-9.102222-6.826667-18.204444-18.204445-18.204444h-50.062222c-9.102222 0-18.204444 6.826667-18.204445 18.204444v31.857778c2.275556 9.102222 11.377778 15.928889 20.48 15.928889z m88.746667-47.786667c0-6.826667 6.826667-13.653333 13.653333-13.653333h50.062223c6.826667 0 13.653333 6.826667 13.653333 13.653333v31.857778c0 6.826667-6.826667 13.653333-13.653333 13.653333H386.844444c-6.826667 0-13.653333-6.826667-13.653333-13.653333v-31.857778z m-102.4 0c0-6.826667 6.826667-13.653333 13.653333-13.653333h50.062223c6.826667 0 13.653333 6.826667 13.653333 13.653333v31.857778c0 6.826667-6.826667 13.653333-13.653333 13.653333h-50.062223c-6.826667 0-13.653333-6.826667-13.653333-13.653333v-31.857778zM967.111111 122.88H484.693333c11.377778 15.928889 18.204444 36.408889 18.204445 56.888889h464.213333v439.182222H609.848889v56.888889h354.986667c31.857778 0 56.888889-22.755556 56.888888-50.062222V172.942222c2.275556-27.306667-22.755556-50.062222-54.613333-50.062222zM31.857778 923.875556h664.462222v27.306666H31.857778z" fill="#4D95F4" p-id="27160"></path><path d="M682.666667 502.897778l97.848889-172.942222 50.062222 152.462222 75.093333-213.902222 18.204445 38.684444h29.582222v-27.306667h-11.377778l-38.684444-91.022222-70.542223 204.8-45.511111-134.257778-104.675555 184.32-43.235556-79.644444-104.675555 63.715555 15.928888 25.031112 77.368889-47.786667zM138.808889 555.235556h15.928889c84.195556 4.551111 147.911111 75.093333 147.911111 157.013333 0 25.031111-4.551111 47.786667-15.928889 68.266667h311.751111l-2.275555-232.106667c-9.102222-45.511111-47.786667-86.471111-104.675556-111.502222l-100.124444 168.391111-11.377778-75.093334c9.102222-4.551111 13.653333-13.653333 13.653333-25.031111 0-15.928889-13.653333-29.582222-29.582222-29.582222-15.928889 0-29.582222 13.653333-29.582222 29.582222 0 11.377778 4.551111 20.48 13.653333 25.031111l-11.377778 75.093334-100.124444-168.391111c-56.888889 25.031111-95.573333 63.715556-104.675556 111.502222v6.826667h6.826667z" fill="#4D95F4" p-id="27161"></path><path d="M152.462222 568.888889v143.36l72.817778 118.328889c38.684444-25.031111 63.715556-70.542222 63.715556-118.328889-2.275556-75.093333-61.44-138.808889-136.533334-143.36zM136.533333 568.888889c-75.093333 4.551111-134.257778 65.991111-134.257777 143.36v6.826667l134.257777-11.377778V568.888889z" fill="#4D95F4" p-id="27162"></path><path d="M275.342222 800.995556c-11.377778 15.928889-25.031111 31.857778-43.235555 43.235555l-2.275556 2.275556-4.551111 2.275555-4.551111 2.275556-2.275556 2.275555c-22.755556 11.377778-47.786667 18.204444-72.817777 18.204445-31.857778 0-59.164444-9.102222-84.195556-25.031111l-27.306667 65.991111h664.462223l-47.786667-111.502222H275.342222z" fill="#4D95F4" p-id="27163"></path><path d="M143.36 855.608889c22.755556 0 45.511111-6.826667 65.991111-15.928889l-68.266667-113.777778-138.808888 9.102222c11.377778 70.542222 70.542222 120.604444 141.084444 120.604445z" fill="#4D95F4" p-id="27164"></path></svg>