<?xml version="1.0" standalone="no"?><!DOCTYPE svg PUBLIC "-//W3C//DTD SVG 1.1//EN" "http://www.w3.org/Graphics/SVG/1.1/DTD/svg11.dtd"><svg t="1652681833238" class="icon" viewBox="0 0 1024 1024" version="1.1" xmlns="http://www.w3.org/2000/svg" p-id="42501" xmlns:xlink="http://www.w3.org/1999/xlink" width="200" height="200"><defs><style type="text/css"></style></defs><path d="M821.76 576l-88.064-66.048a10.496 10.496 0 0 0-16.896 8.704v41.984h-105.472c9.216-54.784 9.728-113.664 9.728-150.528 0-8.192 0-14.848 0.512-19.968a19.456 19.456 0 0 0-18.944-19.968 19.8144 19.8144 0 0 0-19.968 18.944c0 5.12 0 12.288-0.512 20.992-0.512 61.952-4.096 112.128-10.752 151.04H425.472V229.376h42.496a10.24 10.24 0 0 0 7.68-16.384L409.088 128a10.24 10.24 0 0 0-15.872 0l-66.56 84.992a10.24 10.24 0 0 0 7.68 16.384h42.496v256.512c-22.016-29.184-47.104-50.176-78.336-51.2-26.112-0.512-49.664 14.336-70.144 44.032-13.824 19.968-26.112 47.104-37.888 80.896H138.752a24.064 24.064 0 1 0 0 48.128h37.376c-10.752 42.496-15.872 76.288-16.384 78.336a19.2 19.2 0 0 0 16.384 22.016h3.072a19.2512 19.2512 0 0 0 18.944-16.384c0-0.512 6.144-38.912 17.92-83.968h160.256v282.624a24.064 24.064 0 0 0 48.128 0V634.88c24.576 34.304 52.224 59.904 87.552 59.904h1.024c44.544-0.512 70.656-37.376 85.504-86.016h116.736v41.984a10.7008 10.7008 0 0 0 16.896 8.704l88.064-66.048a10.24 10.24 0 0 0 1.536-17.408z m-445.44-15.872H230.912c20.48-55.808 44.032-87.04 66.048-86.528 27.648 1.024 53.76 39.936 79.36 82.944z m136.704 95.744h-0.512c-20.48 0-39.936-19.968-58.88-47.104h104.96c-10.752 30.72-26.112 46.592-45.568 47.104z" p-id="42502"></path><path d="M942.08 0H81.92A81.92 81.92 0 0 0 0 81.92v860.16a81.92 81.92 0 0 0 81.92 81.92h860.16a81.92 81.92 0 0 0 81.92-81.92V81.92a81.92 81.92 0 0 0-81.92-81.92z m30.72 942.08a30.72 30.72 0 0 1-30.72 30.72H81.92a30.72 30.72 0 0 1-30.72-30.72V81.92a30.72 30.72 0 0 1 30.72-30.72h860.16a30.72 30.72 0 0 1 30.72 30.72z" p-id="42503"></path></svg>