<?xml version="1.0" standalone="no"?><!DOCTYPE svg PUBLIC "-//W3C//DTD SVG 1.1//EN" "http://www.w3.org/Graphics/SVG/1.1/DTD/svg11.dtd"><svg t="1652699539348" class="icon" viewBox="0 0 1024 1024" version="1.1" xmlns="http://www.w3.org/2000/svg" p-id="53546" xmlns:xlink="http://www.w3.org/1999/xlink" width="200" height="200"><defs><style type="text/css"></style></defs><path d="M512 1024C76.96384 1024 0 947.022507 0 512S76.96384 0 512 0 1024 76.96384 1024 512 947.022507 1024 512 1024z m0-998.4C98.727253 25.6 25.6 98.7136 25.6 512S98.727253 998.4 512 998.4 998.4 925.272747 998.4 512 925.272747 25.6 512 25.6z" fill="#EAC1B2" p-id="53547"></path><path d="M279.893333 785.066667c-101.034667 0-177.793707-5.270187-236.05248-21.149014C30.26944 698.69568 25.6 616.174933 25.6 512 25.6 98.7136 98.727253 25.6 512 25.6c31.402667 0 60.648107 0.49152 88.255147 1.447253C671.45728 83.367253 689.493333 187.665067 689.493333 375.466667c0 348.023467-61.576533 409.6-409.6 409.6z" fill="#EAC1B2" opacity=".2" p-id="53548"></path><path d="M483.751253 466.944a7.168 7.168 0 0 1-7.181653 7.195307h-173.397333a7.181653 7.181653 0 0 1-7.181654-7.195307V293.669547a7.168 7.168 0 0 1 7.181654-7.181654H476.501333a7.168 7.168 0 0 1 7.195307 7.181654V466.944z m0 314.026667a7.168 7.168 0 0 1-7.181653 7.195306h-173.397333a7.181653 7.181653 0 0 1-7.181654-7.195306V607.696213a7.168 7.168 0 0 1 7.181654-7.181653H476.501333a7.181653 7.181653 0 0 1 7.195307 7.181653V780.970667z m327.68 0a7.181653 7.181653 0 0 1-7.181653 7.195306h-173.397333a7.168 7.168 0 0 1-7.181654-7.195306V607.696213a7.168 7.168 0 0 1 7.181654-7.181653H804.181333a7.168 7.168 0 0 1 7.181654 7.181653V780.970667z" fill="#EAC1B2" p-id="53549"></path><path d="M462.015147 217.33376H267.38688a40.564053 40.564053 0 0 0-40.536747 40.5504v194.573653a40.564053 40.564053 0 0 0 40.536747 40.5504h194.56a40.564053 40.564053 0 0 0 40.536747-40.5504V257.88416a40.42752 40.42752 0 0 0-40.46848-40.5504z m8.06912 235.124053a8.055467 8.055467 0 0 1-8.06912 8.06912H267.38688a8.055467 8.055467 0 0 1-8.06912-8.06912V257.88416a8.055467 8.055467 0 0 1 8.06912-8.06912h194.56a8.055467 8.055467 0 0 1 8.06912 8.06912v194.573653z m193.713493-230.249813l-110.05952 110.05952a32.453973 32.453973 0 0 0 0 45.8752l110.073173 110.073173a32.453973 32.453973 0 0 0 45.8752 0l110.045867-110.01856a32.453973 32.453973 0 0 0 0-45.8752l-110.073173-110.073173a32.413013 32.413013 0 0 0-45.861547 0zM462.015147 534.418773H267.38688a40.564053 40.564053 0 0 0-40.536747 40.5504v194.587307a40.564053 40.564053 0 0 0 40.536747 40.5504h194.56a40.564053 40.564053 0 0 0 40.536747-40.5504V574.969173a40.42752 40.42752 0 0 0-40.46848-40.5504z m8.06912 235.137707a8.055467 8.055467 0 0 1-8.06912 8.06912H267.38688a8.055467 8.055467 0 0 1-8.06912-8.06912V574.969173a8.055467 8.055467 0 0 1 8.06912-8.06912h194.56a8.055467 8.055467 0 0 1 8.06912 8.06912v194.587307z m314.026666-235.137707H589.509973a40.564053 40.564053 0 0 0-40.536746 40.5504v194.587307a40.564053 40.564053 0 0 0 40.536746 40.5504h194.56a40.564053 40.564053 0 0 0 40.536747-40.5504V574.969173a40.523093 40.523093 0 0 0-40.536747-40.5504z m0 243.206827H589.509973a8.055467 8.055467 0 0 1-8.06912-8.06912V574.969173a8.055467 8.055467 0 0 1 8.06912-8.06912h194.56a8.055467 8.055467 0 0 1 8.06912 8.06912v194.587307a8.055467 8.055467 0 0 1-8.06912 8.06912z m0 0" fill="#9B3A18" p-id="53550"></path></svg>