<?xml version="1.0" standalone="no"?><!DOCTYPE svg PUBLIC "-//W3C//DTD SVG 1.1//EN" "http://www.w3.org/Graphics/SVG/1.1/DTD/svg11.dtd"><svg t="1652681535793" class="icon" viewBox="0 0 1146 1024" version="1.1" xmlns="http://www.w3.org/2000/svg" p-id="33542" xmlns:xlink="http://www.w3.org/1999/xlink" width="223.828125" height="200"><defs><style type="text/css"></style></defs><path d="M45.056 307.2h1075.2c14.336 0 24.576 12.288 24.576 24.576 0 14.336-12.288 24.576-24.576 24.576H45.056c-14.336 0-24.576-12.288-24.576-24.576S32.768 307.2 45.056 307.2z" fill="#1890FF" p-id="33543"></path><path d="M1040.384 1024H106.496C49.152 1024 0 974.848 0 917.504V106.496C0 49.152 49.152 0 106.496 0h931.84C1097.728 0 1146.88 49.152 1146.88 106.496v808.96c0 59.392-49.152 108.544-106.496 108.544zM106.496 51.2c-30.72 0-57.344 24.576-57.344 57.344v808.96c0 30.72 24.576 57.344 57.344 57.344h931.84c30.72 0 57.344-24.576 57.344-57.344V106.496c0-30.72-24.576-57.344-57.344-57.344H106.496z" fill="#1890FF" p-id="33544"></path><path d="M532.48 184.32m-40.96 0a40.96 40.96 0 1 0 81.92 0 40.96 40.96 0 1 0-81.92 0Z" fill="#1890FF" p-id="33545"></path><path d="M368.64 184.32m-40.96 0a40.96 40.96 0 1 0 81.92 0 40.96 40.96 0 1 0-81.92 0Z" fill="#1890FF" p-id="33546"></path><path d="M204.8 184.32m-40.96 0a40.96 40.96 0 1 0 81.92 0 40.96 40.96 0 1 0-81.92 0Z" fill="#1890FF" p-id="33547"></path><path d="M358.4 792.576c-4.096 0-8.192-2.048-12.288-4.096l-182.272-102.4c-8.192-4.096-12.288-12.288-12.288-22.528s4.096-18.432 12.288-22.528l182.272-100.352c12.288-6.144 28.672-2.048 34.816 10.24s2.048 28.672-10.24 34.816l-141.312 77.824 141.312 79.872c12.288 6.144 16.384 22.528 10.24 34.816-4.096 8.192-14.336 14.336-22.528 14.336zM798.72 792.576c-8.192 0-18.432-4.096-22.528-12.288-6.144-12.288-2.048-28.672 10.24-34.816l141.312-79.872-141.312-77.824c-12.288-6.144-16.384-22.528-10.24-34.816 6.144-12.288 22.528-16.384 34.816-10.24l182.272 100.352c8.192 4.096 12.288 12.288 12.288 22.528s-4.096 18.432-12.288 22.528l-182.272 102.4c-4.096 0-8.192 2.048-12.288 2.048zM528.384 802.816c-2.048 0-6.144 0-8.192-2.048-12.288-4.096-20.48-20.48-14.336-32.768l100.352-266.24c4.096-12.288 20.48-20.48 32.768-14.336s20.48 20.48 14.336 32.768l-100.352 266.24c-4.096 10.24-14.336 16.384-24.576 16.384z" fill="#1890FF" p-id="33548"></path></svg>