<?xml version="1.0" standalone="no"?><!DOCTYPE svg PUBLIC "-//W3C//DTD SVG 1.1//EN" "http://www.w3.org/Graphics/SVG/1.1/DTD/svg11.dtd"><svg t="1652698940269" class="icon" viewBox="0 0 1024 1024" version="1.1" xmlns="http://www.w3.org/2000/svg" p-id="45957" xmlns:xlink="http://www.w3.org/1999/xlink" width="200" height="200"><defs><style type="text/css"></style></defs><path d="M512 102.4c-113.1 0-204.8 91.7-204.8 204.8S398.9 512 512 512s204.8-91.7 204.8-204.8S625.1 102.4 512 102.4z m0 41c90.5 0 163.8 73.4 163.8 163.8S602.5 471 512 471s-163.8-73.4-163.8-163.8S421.5 143.4 512 143.4z" fill="#102645" p-id="45958"></path><path d="M522.1 819.2c164.1 0 297.1 0 297.1-13.6 0-134.7-133-244-297.1-244S225 670.8 225 805.6c-0.1 13.6 133 13.6 297.1 13.6z" fill="#CFD3DA" opacity=".4" p-id="45959"></path><path d="M504.1 471.1c-206.8 4.5-379.3 185-383.6 395.9l-0.1 8 0.2 3.2c1.5 12.1 11.7 17.8 21.5 17.3l1.1-0.1 122.4 2.8C349.2 900 430 901 511.9 901l148.6-0.2c217.7-1 240.5-6.6 240.5-40.8 0.1-214.7-174.1-389-389-389l-7.9 0.1z m15.9 41c183.3 4.1 331.6 149.9 339.8 332.1l0.2 5.3-2.5 0.6c-1.9 0.4-4.1 0.8-6.4 1.2l-9.1 1.3c-13.2 1.7-30.6 3.1-52.1 4.1l-23.7 1c-49.3 1.8-111.4 2.3-223.9 2.3H512c-65.3 0-129.8-0.7-195.8-1.8l-83.9-1.8-70.3-1.7 0.2-3.3C174.5 666.9 329.9 512 512 512l8 0.1z" fill="#102645" p-id="45960"></path><path d="M897.3 923.1h-200c-23.3 0-42.2-18.9-42.2-42.2V665.8c0-23.3 18.9-42.2 42.2-42.2h200c23.3 0 42.2 18.9 42.2 42.2V881c0 23.2-18.9 42.1-42.2 42.1z" fill="#FFFFFF" p-id="45961"></path><path d="M716.8 655.4h163.8c11.3 0 20.5 9.2 20.5 20.5s-9.2 20.5-20.5 20.5H716.8c-11.3 0-20.5-9.2-20.5-20.5 0-11.4 9.2-20.5 20.5-20.5zM716.8 757.8h163.8c11.3 0 20.5 9.2 20.5 20.5s-9.2 20.5-20.5 20.5H716.8c-11.3 0-20.5-9.2-20.5-20.5 0-11.4 9.2-20.5 20.5-20.5zM716.8 860.2h163.8c11.3 0 20.5 9.2 20.5 20.5s-9.2 20.5-20.5 20.5H716.8c-11.3 0-20.5-9.2-20.5-20.5 0-11.4 9.2-20.5 20.5-20.5z" fill="#102645" p-id="45962"></path></svg>