<?xml version="1.0" standalone="no"?><!DOCTYPE svg PUBLIC "-//W3C//DTD SVG 1.1//EN" "http://www.w3.org/Graphics/SVG/1.1/DTD/svg11.dtd"><svg t="1652680840565" class="icon" viewBox="0 0 1193 1024" version="1.1" xmlns="http://www.w3.org/2000/svg" p-id="12660" xmlns:xlink="http://www.w3.org/1999/xlink" width="233.0078125" height="200"><defs><style type="text/css"></style></defs><path d="M428.582305 157.551051a17.854496 17.854496 0 0 0-17.854496-17.854496H179.288901a17.854496 17.854496 0 0 0-17.854497 17.854496v114.239019h267.147901z" fill="#FFC321" p-id="12661"></path><path d="M518.76239 271.79007V80.598172h38.446683v191.191898h87.531668V17.854496a17.854496 17.854496 0 0 0-17.854497-17.854496H446.436802a17.854496 17.854496 0 0 0-17.854497 17.854496v253.935574z" fill="#215AFF" p-id="12662"></path><path d="M518.76239 80.598172h38.446683v191.177019h-38.446683z" fill="#219EFF" p-id="12663"></path><path d="M776.015925 196.533368l28.715981-25.561687 89.718844 100.818389h117.19989L813.108641 48.713017a26.36514 26.36514 0 0 0-37.107595-2.157418l-122.214027 108.778519a26.36514 26.36514 0 0 0-2.097903 37.107595l70.555018 79.348357h120.741031z m-31.82564-40.172617a19.342371 19.342371 0 1 1 19.342371 19.342372 19.342371 19.342371 0 0 1-19.342371-19.401886z" fill="#1AB91A" p-id="12664"></path><path d="M776.030804 196.533368l66.96924 75.226945h51.450706l-89.718844-100.788632-28.701102 25.561687z" fill="#FFFFFF" p-id="12665"></path><path d="M76.253578 388.350174v554.97726h88.69221V524.728768h328.180522v418.613545h608.972233v-554.977261z m936.736149 468.918588H621.767955a9.120672 9.120672 0 0 1-9.076035-9.090914V429.504788a9.105793 9.105793 0 0 1 9.076035-9.076036h391.221772a9.120672 9.120672 0 0 1 9.090915 9.076036v418.67306a9.120672 9.120672 0 0 1-9.090915 9.090914z" fill="#D1D3D3" p-id="12666"></path><path d="M1102.098543 388.350174H1175.421008a17.854496 17.854496 0 0 0 17.854496-17.854497v-80.851111a17.854496 17.854496 0 0 0-17.854496-17.854496H17.854496a17.854496 17.854496 0 0 0-17.854496 17.854496v80.86599a17.854496 17.854496 0 0 0 17.854496 17.854496h1084.244047z" fill="#333E48" p-id="12667"></path><path d="M493.12631 524.728768H164.945788v418.613545h328.180522z m-277.310086 301.145838a15.101928 15.101928 0 1 1 15.101928-15.101928 15.087049 15.087049 0 0 1-15.101928 15.101928z m13.673569-96.622583v-101.294509h199.092512v101.294509z" fill="#D68231" p-id="12668"></path><path d="M244.36854 642.836261h169.335018v71.537015H244.36854z" fill="#FFFFFF" p-id="12669"></path><path d="M398.824811 657.715008v41.779521h-139.577524v-41.779521h139.577524m29.757494-29.757494H229.489793v101.294509h199.092512v-101.294509z" fill="#333E48" p-id="12670"></path><path d="M215.781003 810.797179m-14.698089 3.469065a15.101928 15.101928 0 1 0 29.396178-6.938129 15.101928 15.101928 0 1 0-29.396178 6.938129Z" fill="#333E48" p-id="12671"></path><path d="M1012.989727 420.369237H621.767955a9.105793 9.105793 0 0 0-9.076035 9.076036v418.732575a9.120672 9.120672 0 0 0 9.076035 9.090914h391.221772a9.120672 9.120672 0 0 0 9.090915-9.090914V429.504788a9.120672 9.120672 0 0 0-9.090915-9.135551z m-214.253956 375.658603A16.098804 16.098804 0 0 1 782.622089 812.126644h-100.22324a16.113683 16.113683 0 0 1-16.113683-16.098804v-121.023728a16.098804 16.098804 0 0 1 16.113683-16.098804H782.622089a16.083925 16.083925 0 0 1 16.128561 16.098804z m0-193.974224A16.083925 16.083925 0 0 1 782.622089 618.15242h-100.22324a16.098804 16.098804 0 0 1-16.113683-16.054168v-121.038606a16.098804 16.098804 0 0 1 16.113683-16.098804H782.622089a16.083925 16.083925 0 0 1 16.098804 16.098804z m177.443936 193.974224a16.098804 16.098804 0 0 1-16.098804 16.098804h-100.267875a16.113683 16.113683 0 0 1-16.098805-16.098804v-121.023728a16.098804 16.098804 0 0 1 16.098805-16.098804h100.267875a16.083925 16.083925 0 0 1 16.098804 16.098804z m0-193.974224a16.083925 16.083925 0 0 1-16.098804 16.098804h-100.267875a16.098804 16.098804 0 0 1-16.098805-16.054168v-121.038606a16.098804 16.098804 0 0 1 16.098805-16.098804h100.267875a16.083925 16.083925 0 0 1 16.098804 16.098804z" fill="#333E48" p-id="12672"></path><path d="M681.163913 479.839589l102.70799 0 0 123.434084-102.70799 0 0-123.434084Z" fill="#FFFFFF" p-id="12673"></path><path d="M768.993156 494.718335v93.736106h-72.90586v-93.736106h72.90586m13.65869-29.757493h-100.252997a16.098804 16.098804 0 0 0-16.113683 16.098804v121.038606a16.098804 16.098804 0 0 0 16.113683 16.098804H782.622089a16.083925 16.083925 0 0 0 16.128561-16.098804v-121.038606A16.083925 16.083925 0 0 0 782.622089 464.960842z" fill="#00AD68" p-id="12674"></path><path d="M858.59297 479.839589l102.70799 0 0 123.434084-102.70799 0 0-123.434084Z" fill="#FFFFFF" p-id="12675"></path><path d="M946.422214 494.718335v93.736106h-72.90586v-93.736106h72.90586m13.658689-29.757493h-100.267875a16.098804 16.098804 0 0 0-16.098805 16.098804v121.038606a16.098804 16.098804 0 0 0 16.098805 16.098804h100.267875a16.083925 16.083925 0 0 0 16.098804-16.098804v-121.038606a16.083925 16.083925 0 0 0-16.098804-16.098804z" fill="#23429B" p-id="12676"></path><path d="M681.163913 673.798933l102.70799 0 0 123.434085-102.70799 0 0-123.434085Z" fill="#FFFFFF" p-id="12677"></path><path d="M768.993156 688.692559v93.736106h-72.90586v-93.736106h72.90586m13.65869-29.757494h-100.252997a16.098804 16.098804 0 0 0-16.113683 16.069047v120.99397a16.113683 16.113683 0 0 0 16.113683 16.098804H782.622089a16.098804 16.098804 0 0 0 16.098804-16.098804v-120.99397a16.083925 16.083925 0 0 0-16.098804-16.069047z" fill="#FFC321" p-id="12678"></path><path d="M858.59297 673.798933l102.70799 0 0 123.434085-102.70799 0 0-123.434085Z" fill="#FFFFFF" p-id="12679"></path><path d="M946.422214 688.692559v93.736106h-72.90586v-93.736106h72.90586m13.658689-29.757494h-100.267875a16.098804 16.098804 0 0 0-16.098805 16.069047v120.99397a16.113683 16.113683 0 0 0 16.098805 16.098804h100.267875a16.098804 16.098804 0 0 0 16.098804-16.098804v-120.99397a16.083925 16.083925 0 0 0-16.098804-16.098804z" fill="#21A9FF" p-id="12680"></path><path d="M164.945788 943.342313H17.854496a17.854496 17.854496 0 0 0-17.854496 17.854496v44.948695a17.854496 17.854496 0 0 0 17.854496 17.854496h1157.566512a17.854496 17.854496 0 0 0 17.854496-17.854496v-44.948695a17.854496 17.854496 0 0 0-17.854496-17.854496H164.945788z" fill="#A4A9AD" p-id="12681"></path><path d="M763.532656 156.301237m-19.342371 0a19.342371 19.342371 0 1 0 38.684742 0 19.342371 19.342371 0 1 0-38.684742 0Z" fill="#FFFFFF" p-id="12682"></path></svg>