<?xml version="1.0" standalone="no"?><!DOCTYPE svg PUBLIC "-//W3C//DTD SVG 1.1//EN" "http://www.w3.org/Graphics/SVG/1.1/DTD/svg11.dtd"><svg t="1652699441371" class="icon" viewBox="0 0 1024 1024" version="1.1" xmlns="http://www.w3.org/2000/svg" p-id="50305" xmlns:xlink="http://www.w3.org/1999/xlink" width="200" height="200"><defs><style type="text/css"></style></defs><path d="M21.333333 21.333333m256 0l469.333334 0q256 0 256 256l0 469.333334q0 256-256 256l-469.333334 0q-256 0-256-256l0-469.333334q0-256 256-256Z" fill="#FF5D33" p-id="50306"></path><path d="M554.666667 448m42.666666 0l170.666667 0q42.666667 0 42.666667 42.666667l0 256q0 42.666667-42.666667 42.666666l-170.666667 0q-42.666667 0-42.666666-42.666666l0-256q0-42.666667 42.666666-42.666667Z" fill="#FFFFFF" opacity=".5" p-id="50307"></path><path d="M277.333333 234.666667h298.666667l149.333333 149.333333v350.698667A54.634667 54.634667 0 0 1 670.698667 789.333333H277.333333a42.666667 42.666667 0 0 1-42.666666-42.666666V277.333333a42.666667 42.666667 0 0 1 42.666666-42.666666z" fill="#FFFFFF" p-id="50308"></path><path d="M470.08 629.226667L399.146667 666.517333a21.333333 21.333333 0 0 1-30.954667-22.485333l13.546667-78.997333a21.333333 21.333333 0 0 0-6.144-18.88l-57.386667-55.936a21.333333 21.333333 0 0 1 11.818667-36.394667l79.317333-11.52a21.333333 21.333333 0 0 0 16.064-11.669333l35.456-71.872a21.333333 21.333333 0 0 1 38.272 0l35.456 71.872a21.333333 21.333333 0 0 0 16.064 11.669333l79.317333 11.52a21.333333 21.333333 0 0 1 11.818667 36.394667l-57.386667 55.936a21.333333 21.333333 0 0 0-6.144 18.88l13.546667 78.997333a21.333333 21.333333 0 0 1-30.933333 22.485333l-70.954667-37.290666a21.333333 21.333333 0 0 0-19.84 0z" fill="#FF5D33" p-id="50309"></path><path d="M576 234.666667v149.333333h149.333333z" fill="#FFAE99" opacity=".5" p-id="50310"></path></svg>