<?xml version="1.0" standalone="no"?><!DOCTYPE svg PUBLIC "-//W3C//DTD SVG 1.1//EN" "http://www.w3.org/Graphics/SVG/1.1/DTD/svg11.dtd"><svg t="1652681878674" class="icon" viewBox="0 0 1024 1024" version="1.1" xmlns="http://www.w3.org/2000/svg" p-id="43226" xmlns:xlink="http://www.w3.org/1999/xlink" width="200" height="200"><defs><style type="text/css"></style></defs><path d="M512 0c282.752 0 512 229.248 512 512s-229.248 512-512 512S0 794.752 0 512 229.248 0 512 0" fill="#EBF8FF" p-id="43227"></path><path d="M892.714667 759.594667a444.245333 444.245333 0 0 1-369.578667 197.290666c-152.576 0-287.189333-76.8-367.274667-193.92l165.973334-68.693333c108.032 19.328 176.853333 40.533333 206.549333 63.573333 29.696-23.04 98.56-44.245333 206.549333-63.573333l157.781334 65.28z" fill="#FFCC26" p-id="43228"></path><path d="M609.28 705.706667a97.749333 97.749333 0 0 1-18.858667 1.834666h-28.373333c-6.656 0-13.184-0.682667-19.456-1.962666a98.645333 98.645333 0 0 1-9.045333-0.853334 96.938667 96.938667 0 0 1-20.906667-3.114666l-2.944 0.853333 2.858667 1.408h-8.064a96.853333 96.853333 0 0 1-9.6 1.834667c-4.138667 0.853333-8.277333 1.365333-12.458667 1.621333a97.194667 97.194667 0 0 1-5.632 0.725333 97.024 97.024 0 0 1-20.992 3.072 97.237333 97.237333 0 0 1-86.4-31.744l-10.88 0.256-38.997333 14.677334a213.589333 213.589333 0 0 0 415.402666 0l-38.997333-14.677334-15.957333-1.28c-17.493333 16.938667-41.344 27.349333-67.584 27.349334h-3.157334z" fill="#FFFFFF" p-id="43229"></path><path d="M644.394667 612.394667c-140.672 4.138667-219.306667 1.877333-235.946667-6.784l-8.106667 61.482666-41.813333 12.544a173.525333 173.525333 0 0 0 337.408 0l-48.128-13.994666-3.413333-53.248" fill="#FFD1B8" p-id="43230"></path><path d="M411.264 624.469333c51.797333 18.944 234.410667 10.837333 234.410667 10.837334l2.304 30.677333 34.005333 9.813333s-9.045333 33.28-16.213333 43.52a140.288 140.288 0 0 1-254.506667-94.848" fill="#FFBF9C" p-id="43231"></path><path d="M324.053333 361.813333c-24.661333-6.528-44.629333 15.36-44.629333 48.896 0 33.536 19.968 66.048 44.629333 72.618667 24.661333 6.528 44.672-15.36 44.672-48.896 0-33.536-20.010667-66.048-44.672-72.618667M728.192 361.813333c24.661333-6.528 44.672 15.36 44.672 48.896 0 33.536-20.010667 66.048-44.672 72.618667-24.661333 6.528-44.629333-15.36-44.629333-48.896 0-33.536 19.968-66.048 44.629333-72.618667" fill="#FCD8C0" p-id="43232"></path><path d="M720.213333 386.816c14.506667-3.84 26.24 9.045333 26.24 28.757333 0 19.754667-11.733333 38.869333-26.24 42.709334-14.506667 3.84-26.282667-9.002667-26.282666-28.757334 0-19.712 11.776-38.826667 26.282666-42.666666M328.405333 387.413333c13.013333-7.509333 27.733333 1.834667 32.853334 20.906667 5.12 19.029333-1.194667 40.533333-14.208 48.085333-13.013333 7.509333-27.733333-1.877333-32.853334-20.906666-5.12-19.072 1.194667-40.576 14.208-48.085334" fill="#FA794D" p-id="43233"></path><path d="M688.896 240.853333c46.165333 39.082667 50.645333 112.341333 21.12 253.525334l-2.645333 10.325333-3.456 12.202667c-69.76 233.984-284.672 236.586667-353.408-22.186667-19.626667-117.632-20.224-194.133333-1.877334-229.418667 30.805333-80.896 128.554667-83.968 184.021334-82.474666 58.24 1.578667 156.245333 58.026667 156.245333 58.026666z" fill="#FFE0CB" p-id="43234"></path><path d="M625.066667 83.626667c7.68 10.965333-3.242667 27.008-14.336 32.512-20.992 10.410667-59.946667 2.048-82.602667-2.688-33.578667-7.04-69.077333-3.669333-99.114667 16.341333-34.346667 22.869333-103.466667 102.186667-116.608 138.154667l42.026667 254.336 11.306667-254.336 116.181333-51.285334s80.64 53.333333 121.941333 41.045334c41.386667-12.330667 124.672 103.466667 124.672 103.466666l19.242667-112c5.12-29.696-14.122667-72.533333-37.930667-87.637333-26.410667-16.768-24.832-17.962667-33.536-37.930667-3.712-8.448-24.533333-30.762667-51.2-40.021333z" fill="#AA5450" p-id="43235"></path><path d="M709.12 483.626667c0.554667 28.245333-24.234667 76.288-39.253333 101.461333-24.021333 40.405333-57.514667 70.058667-96.682667 83.456-7.253333-6.357333-17.28-15.445333-24.576-21.845333l-21.845333-1.92c-8.192 6.357333-20.309333 17.408-28.501334 23.765333-24.362667-0.597333-62.293333-17.792-89.045333-48.426667-27.733333-31.744-45.013333-86.186667-54.016-127.146666H349.44c12.928 119.466667 6.272 123.477333 18.133333 167.68 11.050667 41.216 33.408 78.037333 69.205334 107.52 35.669333 29.44 154.112 29.44 189.781333 0 14.336-11.818667 41.642667-41.429333 55.466667-78.122667 18.090667-47.957333 32.256-185.685333 27.093333-206.421333z m-166.485333 73.386666c-8.277333 1.28-8.021333-0.554667-27.605334 4.864-44.245333 12.16-63.274667 19.541333-78.293333 5.12-7.936-7.637333-6.442667-24.789333 2.432-41.813333-0.170667 20.266667 5.546667 23.936 13.952 24.917333 4.778667 0.554667 16.128-6.058667 28.544-13.397333 8.277333-4.906667 16.341333-8.021333 21.589333-9.728 17.493333-5.717333 7.04-6.741333 26.88 0 16.810667-3.925333 14.08-6.442667 24.576-4.224 31.36 6.656 35.925333 20.864 49.877334 25.173333 10.368 3.242667 9.728-14.208 13.013333-20.949333 3.2 17.706667 7.893333 44.842667-17.493333 44.16-12.885333-0.341333-20.266667-11.861333-57.472-14.08z" fill="#AA5450" p-id="43236"></path><path d="M615.637333 398.677333a15.274667 15.274667 0 1 1 0 30.592 15.274667 15.274667 0 0 1 0-30.592M443.733333 398.677333a15.274667 15.274667 0 1 1 0 30.592 15.274667 15.274667 0 0 1 0-30.592" fill="#1F2456" p-id="43237"></path><path d="M386.816 380.16c-10.197333 10.752-7.893333 13.141333 6.912 7.253333 15.061333-5.930667 44.373333-12.373333 81.194667-19.925333 6.656-1.664 8.064-9.984 5.973333-16.042667a13.525333 13.525333 0 0 0-14.592-9.002666 137.301333 137.301333 0 0 0-79.488 37.717333M667.008 368.512c12.544 7.808 10.922667 10.709333-4.864 8.704-16.085333-1.92-46.122667-0.853333-83.626667 1.152-6.826667 0.085333-10.282667-7.637333-9.813333-14.037333a13.525333 13.525333 0 0 1 11.861333-12.373334c29.866667-4.096 60.202667 1.706667 86.442667 16.554667" fill="#AA5450" p-id="43238"></path><path d="M528.213333 407.765333c0.853333 0 1.706667 0.085333 2.56 0.170667v121.002667a32.128 32.128 0 0 1-31.701333-15.872h-0.64c-10.154667 0-18.474667-7.253333-18.56-16.213334-0.085333-8.96 8.106667-16.213333 18.218667-16.213333a20.48 20.48 0 0 1 7.04 1.28l0.341333-0.341333v-1.066667l0.896-26.282667 0.938667-26.282666a20.906667 20.906667 0 0 1 6.528-14.250667 20.736 20.736 0 0 1 14.378666-5.930667" fill="#FC8158" p-id="43239"></path><path d="M472.448 554.24c-1.92-2.688-0.853333-6.229333 2.304-7.850667 3.242667-1.664 7.381333-0.768 9.301333 1.92 4.266667 5.973333 10.624 10.837333 18.261334 14.208 7.765333 3.413333 16.853333 5.333333 26.453333 5.333334 9.514667 0 18.645333-1.92 26.410667-5.333334 7.637333-3.413333 13.994667-8.234667 18.218666-14.208 1.92-2.688 6.101333-3.584 9.301334-1.92 3.2 1.621333 4.266667 5.12 2.304 7.850667a56.746667 56.746667 0 0 1-23.594667 18.432c-9.728 4.266667-20.992 6.656-32.682667 6.656s-22.954667-2.389333-32.682666-6.656a56.789333 56.789333 0 0 1-23.594667-18.432" fill="#722640" p-id="43240"></path><path d="M498.986667 582.229333a36.778667 36.778667 0 0 0 65.365333 1.237334 65.450667 65.450667 0 0 1-65.365333-1.237334" fill="#ED835C" p-id="43241"></path><path d="M530.133333 407.893333c4.821333 0.426667 9.173333 2.602667 12.586667 5.802667 3.882667 3.669333 6.485333 8.746667 6.826667 14.250667l1.450666 26.282666 1.493334 26.282667v1.877333a20.138667 20.138667 0 0 1 8.277333-1.706666c10.112 0 18.432 7.253333 18.517333 16.213333 0.085333 8.917333-8.064 16.170667-18.218666 16.170667a20.821333 20.821333 0 0 1-4.906667-0.597334 30.933333 30.933333 0 0 1-26.026667 16.512V407.850667z" fill="#E65335" p-id="43242"></path></svg>