<?xml version="1.0" standalone="no"?><!DOCTYPE svg PUBLIC "-//W3C//DTD SVG 1.1//EN" "http://www.w3.org/Graphics/SVG/1.1/DTD/svg11.dtd"><svg t="1652699780534" class="icon" viewBox="0 0 1024 1024" version="1.1" xmlns="http://www.w3.org/2000/svg" p-id="54419" xmlns:xlink="http://www.w3.org/1999/xlink" width="200" height="200"><defs><style type="text/css"></style></defs><path d="M544.09736877 434.40072257h376.85421685v56.55924011H544.09736877zM544.09736877 582.75560939h376.85421685v56.5592401H544.09736877zM544.09736877 726.24640154h376.85421685v56.55924012H544.09736877zM182.54242635 68.32104094h56.5592401v251.85829622h-56.5592401zM782.38144736 68.32104094h56.55924012v251.85829622h-56.55924012z" fill="" p-id="54420"></path><path d="M1036.72835014 943.51872242H-17.39448745V181.43952116h1054.12283759v762.07920126z m-997.56359747-56.55924009h941.00435735V237.99876127H39.16475267v648.96072106z" fill="" p-id="54421"></path><path d="M291.44724317 665.10586299c-76.04389833 0-137.91970701-61.87580869-137.919707-137.91970702s61.87580869-137.91970701 137.919707-137.91970702 137.94798663 61.87580869 137.94798664 137.91970702-61.9040883 137.91970701-137.94798664 137.91970702z m0-219.28017392a81.44530576 81.44530576 0 0 0-81.36046689 81.3604669 81.44530576 81.44530576 0 0 0 81.36046689 81.3604669 81.47358538 81.47358538 0 0 0 81.38874654-81.3604669 81.47358538 81.47358538 0 0 0-81.38874654-81.3604669zM119.28091629 822.9061429l-34.69909382-44.62524045a336.24468246 336.24468246 0 0 1 208.08144438-71.26464254c74.85615429 0 145.89455987 23.92455856 205.42316008 69.14367102l-34.24661989 45.02115514a280.53383097 280.53383097 0 0 0-171.17654019-57.60558606 280.10963666 280.10963666 0 0 0-173.38235056 59.33064289z" fill="" p-id="54422"></path></svg>