<?xml version="1.0" standalone="no"?><!DOCTYPE svg PUBLIC "-//W3C//DTD SVG 1.1//EN" "http://www.w3.org/Graphics/SVG/1.1/DTD/svg11.dtd"><svg t="1652697877724" class="icon" viewBox="0 0 1024 1024" version="1.1" xmlns="http://www.w3.org/2000/svg" p-id="45431" xmlns:xlink="http://www.w3.org/1999/xlink" width="200" height="200"><defs><style type="text/css"></style></defs><path d="M899.689877 279.905975v193.169383l-370.839704 244.242963c-15.802469 1.694025-31.756642 1.011358-47.35684-2.022716a167.076346 167.076346 0 0 1-52.426271-19.380148l-102.488494-59.000099-134.839309-77.69758-33.210469-19.051457a69.278025 69.278025 0 0 1-34.221827-59.834469V279.893333h775.382914z" fill="#CAD9FC" p-id="45432"></path><path d="M849.121975 279.905975v193.169383l-367.628642 242.220247a167.076346 167.076346 0 0 1-52.426271-19.380148l-102.488494-59.000099-134.839309-77.69758-33.210469-19.051457a69.278025 69.278025 0 0 1-34.221827-59.834469V279.893333h724.815012z" fill="#E8EDFC" p-id="45433"></path><path d="M983.796938 237.605926l-42.641382 20.555852-425.453037 205.482666c-2.364049 1.011358-5.044148 1.011358-7.408198 0L40.199901 237.605926a3.021432 3.021432 0 0 1-1.175703-0.847012 8.432198 8.432198 0 0 1 1.517037-14.664692l468.258765-193.675062a8.432198 8.432198 0 0 1 6.39684 0l468.258765 193.675062a8.508049 8.508049 0 0 1 0.341333 15.511704z" fill="#CAD9FC" p-id="45434"></path><path d="M941.155556 258.161778L515.702519 463.644444c-2.364049 1.011358-5.044148 1.011358-7.408198 0L40.199901 237.605926a3.021432 3.021432 0 0 1-1.175703-0.847012L462.947556 61.452642a8.432198 8.432198 0 0 1 6.409481 0l468.258765 193.675062c1.453827 0.632099 2.692741 1.694025 3.539754 3.034074z" fill="#E8EDFC" p-id="45435"></path><path d="M191.739259 515.893728m41.756445 0l51.339061 0q41.756444 0 41.756445 41.756445l0 152.474864q0 41.756444-41.756445 41.756444l-51.339061 0q-41.756444 0-41.756445-41.756444l0-152.474864q0-41.756444 41.756445-41.756445Z" fill="#E8EDFC" p-id="45436"></path><path d="M1000.825679 521.114864v238.174815a154.320593 154.320593 0 0 1-65.232593 125.749728l-165.862716 118.164544a8.634469 8.634469 0 0 1-9.784889 0L739.553975 988.703605l-145.47121-103.664198a154.320593 154.320593 0 0 1-65.232592-125.749728v-238.174815c0.012642-3.350123 1.997432-6.384198 5.05679-7.749531L739.553975 424.530173l21.908544-9.430914a9.304494 9.304494 0 0 1 6.750814 0l227.555556 98.266074c3.059358 1.365333 5.044148 4.399407 5.05679 7.749531z" fill="#E8EDFC" p-id="45437"></path><path d="M950.257778 521.114864v238.174815a154.320593 154.320593 0 0 1-65.232593 125.749728L739.553975 988.703605l-145.47121-103.664198a154.320593 154.320593 0 0 1-65.232592-125.749728v-238.174815c0.012642-3.350123 1.997432-6.384198 5.05679-7.749531L739.553975 424.530173l205.647013 88.83516c3.059358 1.365333 5.044148 4.399407 5.05679 7.749531z" fill="#FFFFFF" p-id="45438"></path><path d="M593.261037 865.140938c-29.961481-20.821333-47.87516-54.575407-48.06479-90.642963V519.066864L764.837926 425.807012l219.641679 93.259852v255.431111c-0.202272 36.067556-18.090667 69.834272-48.06479 90.668247L764.837926 985.100642l-171.576889-119.959704z" fill="#A4C2F7" p-id="45439"></path><path d="M242.30716 718.165333V559.217778l-33.210469-19.051457a69.278025 69.278025 0 0 1-34.221827-59.834469v-183.561482h3.514469l-50.567901-16.864395h-3.514469v200.425877a69.278025 69.278025 0 0 0 34.221827 59.834469l33.210469 19.051457v158.947555a33.716148 33.716148 0 0 0 33.703506 33.716148h50.567902a33.716148 33.716148 0 0 1-33.703507-33.716148z" fill="#FFFFFF" p-id="45440"></path><path d="M764.837926 1021.572741c-6.257778 0-12.363852-1.946864-17.458568-5.575111l-163.081481-116.103902A171.665383 171.665383 0 0 1 511.99842 760.478025V516.702815c0-6.700247 3.956938-12.793679 10.11358-15.473778l235.987753-101.944889a16.851753 16.851753 0 0 1 13.349926 0l235.975111 101.944889c6.156642 2.680099 10.126222 8.760889 10.11358 15.473778v243.77521a171.665383 171.665383 0 0 1-72.286814 139.415703l-163.081482 116.103902c-5.05679 3.602963-11.124938 5.562469-17.332148 5.575111z m-219.123358-493.795556v232.70084a137.848099 137.848099 0 0 0 58.127802 111.957333L764.837926 987.034864l160.995555-114.62479a137.848099 137.848099 0 0 0 58.127803-111.932049v-232.612346L764.837926 433.114074l-219.123358 94.663111z" fill="#428DFF" p-id="45441"></path><path d="M16.736395 213.775802L219.210272 129.959506 505.551012 11.504198l12.894815 31.149827-286.340741 118.480592-202.486518 83.791013z" fill="#FFFFFF" p-id="45442"></path><path d="M101.045728 197.113679a16.851753 16.851753 0 0 0-22.009679-9.114864L16.673185 213.76316l12.869531 31.149828 62.375506-25.764346a16.851753 16.851753 0 0 0 9.127506-22.034963zM518.445827 42.641383L505.551012 11.504198l-301.915654 124.940642a16.851753 16.851753 0 1 0 12.894815 31.149827l301.903012-124.940642zM141.335704 162.196543c-4.096 1.769877-7.382914 5.031506-9.190716 9.102222l-0.910223 3.109926a13.198222 13.198222 0 0 0-0.252839 3.375408c-0.075852 1.061926 0 2.149136 0.240197 3.185778 0.25284 1.099852 0.581531 2.187062 0.973433 3.248987 1.769877 4.096 5.018864 7.382914 9.102222 9.190716 2.073284 0.783802 4.272988 1.175704 6.497975 1.137778a17.205728 17.205728 0 0 0 15.625482-10.290568 17.572346 17.572346 0 0 0 1.137777-6.497975 16.700049 16.700049 0 0 0-23.223308-15.54963z" fill="#428DFF" p-id="45443"></path><path d="M511.99842 482.17758c-2.528395 0-5.05679-0.568889-7.332346-1.681382L15.838815 244.508444a16.851753 16.851753 0 0 1 14.664691-30.34074L511.99842 446.615704l447.61442-216.089284L505.53837 42.641383A16.864395 16.864395 0 1 1 518.458469 11.504198l488.814617 202.271604a16.851753 16.851753 0 0 1 0.884939 30.745284L519.330765 480.496198c-2.275556 1.112494-4.803951 1.694025-7.332345 1.681382z" fill="#428DFF" p-id="45444"></path><path d="M511.99842 407.324444c-2.528395 0-5.05679-0.581531-7.332346-1.681382l-323.925333-156.381235a16.851753 16.851753 0 0 1 0.859654-30.757926L505.551012 84.461037a16.952889 16.952889 0 0 1 12.920099 0l323.912691 134.042864a16.851753 16.851753 0 0 1 0.859655 30.757926L519.330765 405.643062c-2.275556 1.099852-4.803951 1.681383-7.332345 1.681382zM229.285926 235.26716L511.99842 371.749926l282.712494-136.533333L511.99842 118.278321l-282.712494 117.001481zM191.739259 576.069531c-2.958222 0-5.865877-0.758519-8.432197-2.224988l-33.210469-19.051457A86.483753 86.483753 0 0 1 107.45521 480.331852V279.893333a16.851753 16.851753 0 0 1 33.716148 0v200.425877a52.590617 52.590617 0 0 0 25.865482 45.283555l33.121975 18.937679a16.851753 16.851753 0 0 1-8.419556 31.516445zM512.263901 735.017086a184.25679 184.25679 0 0 1-91.629037-24.525432l-102.46321-58.987456a16.864395 16.864395 0 0 1 16.851753-29.202963l102.488494 58.987456a148.909827 148.909827 0 0 0 89.656889 19.266371 16.864395 16.864395 0 0 1 3.501827 33.53916c-6.106074 0.632099-12.262716 0.935506-18.406716 0.922864zM899.689877 489.939753a16.851753 16.851753 0 0 1-16.864396-16.864395v-193.169383a16.851753 16.851753 0 0 1 33.716149 0v193.169383c0 9.317136-7.547259 16.864395-16.851753 16.864395z" fill="#428DFF" p-id="45445"></path><path d="M292.875062 768.733235h-67.432297a50.567901 50.567901 0 0 1-50.567901-50.567902V549.609877a50.567901 50.567901 0 0 1 50.567901-50.567902h67.432297a50.567901 50.567901 0 0 1 50.567901 50.567902v168.555456a50.567901 50.567901 0 0 1-50.567901 50.567902z m-67.432297-235.987754c-9.304494 0-16.851753 7.547259-16.851753 16.864396v168.555456c0 9.304494 7.547259 16.851753 16.851753 16.851753h67.432297c9.304494 0 16.851753-7.547259 16.851753-16.851753V549.609877c0-9.317136-7.547259-16.864395-16.851753-16.864396h-67.432297z" fill="#428DFF" p-id="45446"></path><path d="M259.158914 532.745481a16.851753 16.851753 0 0 1-16.851754-16.851753V347.338272c0-6.548543 3.792593-12.515556 9.72168-15.271507l252.839506-118.000197a16.851753 16.851753 0 1 1 14.260148 30.543012l-243.105185 113.461729v157.822419c0 9.304494-7.559901 16.851753-16.864395 16.851753zM259.158914 768.733235a16.851753 16.851753 0 0 1-16.851754-16.851754V684.436543a16.851753 16.851753 0 0 1 33.703507 0v67.432297c0 9.304494-7.547259 16.851753-16.851753 16.851753z" fill="#428DFF" p-id="45447"></path></svg>