<?xml version="1.0" standalone="no"?><!DOCTYPE svg PUBLIC "-//W3C//DTD SVG 1.1//EN" "http://www.w3.org/Graphics/SVG/1.1/DTD/svg11.dtd"><svg t="1652681610484" class="icon" viewBox="0 0 1024 1024" version="1.1" xmlns="http://www.w3.org/2000/svg" p-id="36483" xmlns:xlink="http://www.w3.org/1999/xlink" width="200" height="200"><defs><style type="text/css"></style></defs><path d="M512 512m-512 0a512 512 0 1 0 1024 0 512 512 0 1 0-1024 0Z" fill="#FFFFFF" p-id="36484"></path><path d="M512 512m-480 0a480 480 0 1 0 960 0 480 480 0 1 0-960 0Z" fill="#006CE6" p-id="36485"></path><path d="M503.466667 297.386667l127.146666 518.4H376.106667l127.36-518.4m0-201.386667l-188.373334 768h376.96l-188.586666-768z" fill="#FFFFFF" p-id="36486"></path><path d="M401.066667 424.32a104.32 103.68 90 1 0 207.36 0 104.32 103.68 90 1 0-207.36 0Z" fill="#006CE6" p-id="36487"></path><path d="M504.746667 218.88c-125.866667 0-229.333333 78.506667-244.48 179.626667h48.64c13.44-75.093333 95.36-132.906667 194.56-132.906667s181.12 57.813333 194.56 132.906667h51.413333c-15.36-101.12-118.826667-179.626667-244.693333-179.626667z" fill="#FFFFFF" p-id="36488"></path><path d="M309.973333 398.293333H258.133333l51.84 51.84v-51.84z" fill="#FFFFFF" p-id="36489"></path><path d="M749.226667 398.293333h-51.84v51.84l51.84-51.84z" fill="#FFFFFF" p-id="36490"></path><path d="M469.546667 431.786667a43.306667 42.453333 90 1 0 84.906666 0 43.306667 42.453333 90 1 0-84.906666 0Z" fill="#FFFFFF" p-id="36491"></path><path d="M512 412.586667c10.24 0 18.56 8.533333 18.56 19.2s-8.32 19.2-18.56 19.2-18.56-8.533333-18.56-19.2 8.32-19.2 18.56-19.2m0-48c-36.693333 0-66.56 30.08-66.56 67.2s29.866667 67.2 66.56 67.2 66.56-30.08 66.56-67.2-29.866667-67.2-66.56-67.2z" fill="#FFFFFF" p-id="36492"></path><path d="M395.733333 438.186667a23.850667 23.850667 0 0 0-40.96-16.64L118.613333 614.4v0.213333c-4.906667 4.48-8.32 10.88-8.32 18.133334 0 13.653333 10.88 24.533333 24.533334 24.533333 0.853333 0 1.493333-0.426667 2.346666-0.426667l0.213334 0.426667 190.506666-44.373333 0.213334-0.213334c0.64 0 1.066667-0.213333 1.706666-0.213333l5.76-1.28c1.28-0.426667 2.773333-0.853333 4.053334-1.706667 6.4-4.053333 10.026667-10.453333 10.88-17.28l0.426666-0.213333 43.946667-146.133333-0.426667-0.426667c0.64-2.346667 1.28-4.693333 1.28-7.253333z m-88.32 129.92l-76.373333 17.28 95.36-78.293334-18.986667 61.013334zM616.32 448.64c0-13.226667 10.666667-23.893333 24.106667-23.893333 6.826667 0 12.8 2.773333 17.066666 7.253333l235.946667 193.066667v0.213333c4.906667 4.48 8.32 10.88 8.32 18.133333 0 13.653333-10.88 24.533333-24.533333 24.533334-0.853333 0-1.493333-0.426667-2.346667-0.426667l-0.213333 0.213333-190.506667-44.373333-0.213333-0.213333c-0.64 0-1.066667-0.213333-1.706667-0.213334l-5.76-1.28c-1.28-0.426667-2.773333-0.853333-4.053333-1.706666-6.4-4.053333-10.026667-10.453333-10.88-17.28l-0.426667-0.213334-43.946667-146.133333 0.426667-0.426667c-0.426667-2.346667-1.28-4.693333-1.28-7.253333z m88.32 129.92l76.373333 17.28-95.36-78.293333 18.986667 61.013333z" fill="#FFFFFF" p-id="36493"></path></svg>