<?xml version="1.0" standalone="no"?><!DOCTYPE svg PUBLIC "-//W3C//DTD SVG 1.1//EN" "http://www.w3.org/Graphics/SVG/1.1/DTD/svg11.dtd"><svg t="1652681223907" class="icon" viewBox="0 0 1024 1024" version="1.1" xmlns="http://www.w3.org/2000/svg" p-id="25499" xmlns:xlink="http://www.w3.org/1999/xlink" width="200" height="200"><defs><style type="text/css"></style></defs><path d="M546.133333 808.96c0-116.053333 71.68-215.04 180.906667-252.586667-47.786667-34.133333-98.986667-54.613333-157.013333-68.266666 122.88-40.96 191.146667-177.493333 150.186666-300.373334s-177.493333-191.146667-300.373333-150.186666-191.146667 177.493333-150.186667 300.373333c23.893333 71.68 78.506667 126.293333 150.186667 150.186667-170.666667 34.133333-320.853333 177.493333-320.853333 348.16 0 75.093333 61.44 136.533333 136.533333 139.946666h372.053333c-40.96-47.786667-61.44-105.813333-61.44-167.253333z" fill="#C53E49" p-id="25500"></path><path d="M788.48 590.506667c-112.64 0-204.8 92.16-204.8 204.8s92.16 204.8 204.8 204.8 204.8-92.16 204.8-204.8-92.16-204.8-204.8-204.8z m95.573333 228.693333h-71.68v71.68c0 13.653333-10.24 23.893333-23.893333 23.893333-13.653333 0-23.893333-10.24-23.893333-23.893333V819.2h-71.68c-13.653333 0-23.893333-10.24-23.893334-23.893333 0-13.653333 10.24-23.893333 23.893334-23.893334h71.68v-68.266666c0-13.653333 10.24-23.893333 23.893333-23.893334 13.653333 0 23.893333 10.24 23.893333 23.893334v71.68h71.68c13.653333 0 23.893333 10.24 23.893334 23.893333 3.413333 10.24-10.24 20.48-23.893334 20.48z" fill="#C53E49" p-id="25501"></path></svg>